<svg xmlns="http://www.w3.org/2000/svg" xmlns:xlink="http://www.w3.org/1999/xlink" width="100" viewBox="0 0 75 135.000003" height="180" preserveAspectRatio="xMidYMid meet"><defs><clipPath id="bdfbf27efa"><path d="M 13 1 L 63 1 L 63 129 L 13 129 Z M 13 1 " clip-rule="nonzero"></path></clipPath><clipPath id="97b09db7db"><path d="M -36.144531 68.40625 L 42.449219 -0.0507812 L 110.90625 78.542969 L 32.3125 147 Z M -36.144531 68.40625 " clip-rule="nonzero"></path></clipPath><clipPath id="48659c49c7"><path d="M -36.144531 68.40625 L 42.449219 -0.0507812 L 110.90625 78.542969 L 32.3125 147 Z M -36.144531 68.40625 " clip-rule="nonzero"></path></clipPath></defs><g clip-path="url(#bdfbf27efa)"><g clip-path="url(#97b09db7db)"><g clip-path="url(#48659c49c7)"><path fill="#6fbbf4" d="M 53.296875 127.808594 C 52.84375 128.203125 52.242188 128.414062 51.621094 128.363281 L 15.316406 125.609375 C 14.070312 125.515625 13.128906 124.4375 13.207031 123.1875 L 15.460938 86.851562 C 15.515625 85.925781 16.128906 85.125 17.007812 84.828125 C 17.886719 84.527344 18.859375 84.789062 19.46875 85.492188 L 34.964844 103.28125 C 62.707031 77.519531 65.273438 34.167969 40.359375 5.5625 C 39.53125 4.609375 39.628906 3.164062 40.582031 2.335938 C 41.535156 1.507812 42.980469 1.605469 43.808594 2.558594 C 70.882812 33.640625 67.503906 81.0625 36.269531 108.265625 C 35.320312 109.09375 33.871094 108.992188 33.042969 108.042969 L 19.683594 92.703125 L 17.914062 121.21875 L 46.402344 123.378906 L 40.90625 117.070312 C 40.074219 116.117188 40.175781 114.671875 41.128906 113.839844 C 42.082031 113.011719 43.527344 113.109375 44.355469 114.0625 L 53.519531 124.582031 C 54.128906 125.28125 54.253906 126.28125 53.835938 127.109375 C 53.699219 127.382812 53.515625 127.617188 53.296875 127.808594 Z M 53.296875 127.808594 " fill-opacity="1" fill-rule="nonzero"></path></g></g></g></svg>