<svg xmlns="http://www.w3.org/2000/svg" id="Layer_1" data-name="Layer 1" viewBox="0 0 1132.46 271.95"><defs><style>      .cls-1 {        fill: none;      }      .cls-2 {        fill: #67bfea;      }      .cls-3 {        fill: #fff;      }      .cls-4 {        fill: #f39620;      }      .cls-5 {        fill: #bb6292;      }      .cls-6 {        fill: #afd07a;      }      .cls-7 {        fill: #4790c8;      }      .cls-8 {        fill: #78b066;      }      .cls-9 {        fill: #4e92c5;      }    </style></defs><g><polygon class="cls-3" points="18.45 139.26 27.43 139.26 27.43 175.56 32.22 175.56 32.22 139.26 41.2 139.26 41.2 134.63 18.45 134.63 18.45 139.26"></polygon><path class="cls-3" d="M72.26,133.61c-3.8,0-7.39,.96-10.66,2.85-3.27,1.89-5.89,4.55-7.78,7.89-1.89,3.34-2.85,7.01-2.85,10.92,0,5.87,2.11,10.94,6.26,15.07,4.15,4.13,9.32,6.23,15.35,6.23s11.09-2.1,15.23-6.26c4.15-4.15,6.25-9.28,6.25-15.24s-2.11-11.15-6.26-15.27c-4.15-4.11-9.38-6.2-15.55-6.2Zm16.96,21.45c0,3.14-.74,6.03-2.19,8.59-1.45,2.56-3.5,4.61-6.09,6.08-2.59,1.48-5.45,2.23-8.5,2.23-4.56,0-8.51-1.63-11.74-4.84-3.23-3.21-4.87-7.2-4.87-11.87,0-3.16,.74-6.05,2.2-8.62,1.46-2.56,3.52-4.63,6.12-6.14,2.6-1.51,5.39-2.28,8.29-2.28s5.79,.77,8.43,2.28c2.64,1.51,4.71,3.56,6.16,6.07,1.45,2.52,2.19,5.38,2.19,8.49Z"></path><polygon class="cls-3" points="129.87 175.56 153.46 175.56 153.46 170.93 134.58 170.93 134.58 155.81 153.46 155.81 153.46 151.18 134.58 151.18 134.58 139.26 153.62 139.26 153.62 134.63 129.87 134.63 129.87 175.56"></polygon><polygon class="cls-3" points="194.01 164.89 167.83 134.75 167.73 134.63 166.35 134.63 166.35 175.56 171.2 175.56 171.2 145.67 197.23 175.52 197.26 175.56 198.67 175.56 198.67 134.63 194.01 134.63 194.01 164.89"></polygon><path class="cls-3" d="M236.13,136.1c-2.74-.98-7.19-1.47-13.22-1.47h-8.69v40.94h13.15c5.05,0,9.04-.75,11.86-2.23,2.83-1.48,5.16-3.81,6.92-6.92,1.76-3.1,2.66-6.74,2.66-10.81,0-4.71-1.13-8.84-3.35-12.25-2.23-3.42-5.37-5.86-9.33-7.25Zm-17.36,3.16h2.5c5.72,0,9.87,.38,12.35,1.13,3.26,.99,5.84,2.85,7.67,5.52,1.83,2.68,2.76,5.96,2.76,9.75s-.85,6.71-2.54,9.2c-1.68,2.48-4.02,4.23-6.96,5.18-2.11,.68-5.96,1.02-11.47,1.02h-4.3v-31.81Z"></path><polygon class="cls-3" points="280.31 139.26 289.28 139.26 289.28 175.56 294.08 175.56 294.08 139.26 303.05 139.26 303.05 134.63 280.31 134.63 280.31 139.26"></polygon><polygon class="cls-3" points="339.79 151.51 319.99 151.51 319.99 134.63 315.28 134.63 315.28 175.56 319.99 175.56 319.99 156.14 339.79 156.14 339.79 175.56 344.5 175.56 344.5 134.63 339.79 134.63 339.79 151.51"></polygon><polygon class="cls-3" points="360.81 175.56 384.4 175.56 384.4 170.93 365.52 170.93 365.52 155.81 384.4 155.81 384.4 151.18 365.52 151.18 365.52 139.26 384.56 139.26 384.56 134.63 360.81 134.63 360.81 175.56"></polygon><polygon class="cls-3" points="446.83 151.51 425.61 151.51 425.61 134.63 420.62 134.63 420.62 175.56 425.61 175.56 425.61 156.14 446.83 156.14 446.83 175.56 451.83 175.56 451.83 134.63 446.83 134.63 446.83 151.51"></polygon><rect class="cls-3" x="468.66" y="134.63" width="4.99" height="40.94"></rect><polygon class="cls-3" points="486.22 139.26 495.82 139.26 495.82 175.56 500.9 175.56 500.9 139.26 510.5 139.26 510.5 134.63 486.22 134.63 486.22 139.26"></polygon><polygon class="cls-3" points="519.41 139.26 529.01 139.26 529.01 175.56 534.09 175.56 534.09 139.26 543.68 139.26 543.68 134.63 519.41 134.63 519.41 139.26"></polygon><rect class="cls-3" x="556.25" y="134.63" width="4.99" height="40.94"></rect><polygon class="cls-3" points="607.69 164.94 579.65 134.74 579.54 134.63 578.11 134.63 578.11 175.56 583.25 175.56 583.25 145.62 611.06 175.45 611.16 175.56 612.63 175.56 612.63 134.63 607.69 134.63 607.69 164.94"></polygon><path class="cls-3" d="M654.19,160.16h12.96c-.59,3.43-2.26,6.28-4.98,8.47-2.83,2.27-6.34,3.43-10.44,3.43-3.39,0-6.54-.77-9.39-2.3-2.84-1.52-5.09-3.64-6.7-6.3-1.61-2.66-2.42-5.5-2.42-8.45s.79-5.65,2.34-8.23c1.55-2.59,3.77-4.67,6.6-6.18,5.32-2.84,10.96-3.04,16.78-.6,2.66,1.12,5.14,2.78,7.38,4.95l.24,.23,3.68-3.43-.27-.25c-2.92-2.73-5.97-4.75-9.05-5.99-3.08-1.24-6.42-1.87-9.9-1.87-4.31,0-8.24,.95-11.66,2.82-3.43,1.88-6.17,4.51-8.13,7.83-1.97,3.32-2.96,6.96-2.96,10.82,0,5.19,1.74,9.82,5.17,13.77,4.45,5.13,10.58,7.72,18.2,7.72,6.29,0,11.38-1.88,15.14-5.58,3.76-3.71,5.69-8.77,5.73-15.06v-.35s-18.3,0-18.3,0v4.58Z"></path><path class="cls-3" d="M727.96,133.61c-3.8,0-7.39,.96-10.66,2.85-3.27,1.89-5.89,4.55-7.78,7.89-1.89,3.34-2.85,7.01-2.85,10.92,0,5.87,2.11,10.94,6.26,15.07,4.15,4.13,9.32,6.23,15.35,6.23s11.09-2.1,15.23-6.26c4.15-4.15,6.25-9.28,6.25-15.24s-2.11-11.15-6.26-15.27c-4.15-4.11-9.38-6.2-15.55-6.2Zm16.96,21.45c0,3.14-.74,6.03-2.19,8.59-1.45,2.56-3.5,4.61-6.09,6.08-2.59,1.48-5.45,2.23-8.5,2.23-4.56,0-8.51-1.63-11.74-4.84-3.23-3.21-4.87-7.2-4.87-11.87,0-3.16,.74-6.05,2.2-8.62s3.52-4.63,6.12-6.14c2.6-1.51,5.39-2.28,8.29-2.28s5.79,.77,8.43,2.28c2.64,1.51,4.71,3.56,6.16,6.07,1.45,2.52,2.19,5.38,2.19,8.49Z"></path><polygon class="cls-3" points="761.74 175.56 766.45 175.56 766.45 155.81 782.59 155.81 782.59 151.18 766.45 151.18 766.45 139.26 782.59 139.26 782.59 134.63 761.74 134.63 761.74 175.56"></polygon><polygon class="cls-3" points="893.88 151.51 874.84 151.51 874.84 134.63 870.27 134.63 870.27 175.56 874.84 175.56 874.84 156.14 893.88 156.14 893.88 175.56 898.44 175.56 898.44 134.63 893.88 134.63 893.88 151.51"></polygon><rect class="cls-3" x="913.53" y="134.63" width="4.57" height="40.94"></rect><polygon class="cls-3" points="937.75 134.63 933.19 134.63 933.19 175.56 952.67 175.56 952.67 170.98 937.75 170.98 937.75 134.63"></polygon><path class="cls-3" d="M983.51,136.1c-2.64-.98-6.93-1.47-12.74-1.47h-8.38v40.94h12.68c4.86,0,8.71-.75,11.43-2.23,2.73-1.49,4.97-3.81,6.67-6.92,1.7-3.1,2.56-6.74,2.56-10.81,0-4.71-1.09-8.84-3.23-12.25-2.15-3.43-5.17-5.87-8.99-7.25Zm-16.71,3.16h2.39c5.5,0,9.5,.38,11.88,1.13,3.14,.99,5.62,2.85,7.38,5.52,1.76,2.68,2.66,5.96,2.66,9.76s-.82,6.71-2.45,9.2c-1.62,2.48-3.87,4.22-6.7,5.18-2.03,.68-5.74,1.02-11.03,1.02h-4.13v-31.81Z"></path><path class="cls-3" d="M1026.02,155.54c1.9-.87,3.38-2.19,4.41-3.9,1.02-1.71,1.54-3.71,1.54-5.96,0-2.7-.75-5-2.24-6.86-1.48-1.85-3.44-3.08-5.8-3.64-1.55-.37-4.52-.56-8.83-.56h-8.06v40.94h4.56v-18.69h1.67l13.83,18.55,.1,.14h5.66l-13.94-18.7c2.96-.07,5.35-.52,7.1-1.32Zm.26-6.29c-.65,1.05-1.58,1.83-2.74,2.31-1.19,.49-3.08,.74-5.6,.74l-6.33-.05v-12.99h6.49c2.6,0,4.47,.23,5.57,.69,1.07,.44,1.95,1.2,2.61,2.23,.66,1.04,1,2.22,1,3.49s-.33,2.52-.99,3.58Z"></path><polygon class="cls-3" points="1044.24 175.56 1066.99 175.56 1066.99 170.93 1048.81 170.93 1048.81 155.81 1066.99 155.81 1066.99 151.18 1048.81 151.18 1048.81 139.26 1067.15 139.26 1067.15 134.63 1044.24 134.63 1044.24 175.56"></polygon><polygon class="cls-3" points="1111.11 134.63 1111.11 164.92 1083.71 134.74 1083.6 134.63 1082.19 134.63 1082.19 175.56 1087.23 175.56 1087.23 145.64 1114.47 175.52 1114.51 175.56 1115.95 175.56 1115.95 134.63 1111.11 134.63"></polygon><path class="cls-3" d="M848.98,135.88c-2.95-1.51-6.3-2.27-9.96-2.27-6.06,0-11.17,2.06-15.2,6.14-4.03,4.07-6.07,9.16-6.07,15.11s1.68,10.55,5.01,14.56c3.97,4.75,9.45,7.15,16.31,7.15,3.6,0,6.91-.72,9.83-2.13,.77-.37,1.55-.82,2.37-1.36l.15-.1v-6.04l-.58,.55c-3.24,3.04-7.12,4.59-11.54,4.59-4.82,0-8.86-1.62-12.02-4.82-3.16-3.2-4.76-7.25-4.76-12.04,0-3.17,.72-6.07,2.13-8.6,1.41-2.53,3.43-4.58,6-6.08,2.57-1.5,5.4-2.26,8.41-2.26,2.76,0,5.33,.58,7.63,1.73,1.47,.74,2.87,1.75,4.14,3.02l.59,.59v-6.24l-.15-.1c-.79-.55-1.55-1-2.3-1.39Z"></path></g><g><path class="cls-1" d="M181.13,65.47c-9.48,0-17.73,5.18-22.12,12.86,9.96,2.99,18.31,7.67,24.07,13.44,5.1-5.12,12.26-9.37,20.75-12.36-4.21-8.27-12.79-13.94-22.7-13.94Z"></path><path class="cls-7" d="M299.72,60.8h-38.96c-10.61,0-20.42,3.36-28.49,9.04,2.17,1.53,4.21,3.21,6.1,5.05,5.99,.36,11.72,1.29,17.04,2.68,4.49-7.26,12.5-12.1,21.66-12.1,14.08,0,25.49,11.41,25.49,25.49v19.41h46.74c0-27.38-22.2-49.57-49.57-49.57Z"></path><path class="cls-2" d="M107.45,78.52c-18.95,5.87-31.96,17.92-31.96,31.85h35.2v-19.41c0-4.52-1.19-8.75-3.25-12.43Z"></path><path class="cls-2" d="M183.08,91.77c-5.76-5.77-14.12-10.46-24.07-13.44-2.13,3.73-3.37,8.03-3.37,12.63v6.33c1.14,4.17,1.8,8.55,1.8,13.08h0s17.11,0,17.11,0c0-6.82,3.12-13.19,8.52-18.6Z"></path><path class="cls-6" d="M251.58,97.39c1.12,4.14,1.78,8.48,1.78,12.98h0s37.31,0,37.31,0c0-14.72-14.53-27.36-35.26-32.8-2.41,3.89-3.83,8.47-3.83,13.38v6.44Z"></path><path class="cls-6" d="M203.83,79.41c-8.49,2.98-15.64,7.24-20.75,12.36,5.4,5.42,8.52,11.79,8.52,18.6h15.01v-19.41c0-4.16-1.02-8.08-2.79-11.54Z"></path><path class="cls-8" d="M251.58,97.39v-6.44c0-4.92,1.42-9.49,3.83-13.38-5.32-1.4-11.04-2.32-17.04-2.68,6.25,6.09,10.86,13.83,13.21,22.5Z"></path><path class="cls-8" d="M183.08,91.77c-5.4,5.42-8.52,11.79-8.52,18.6h17.05c0-6.82-3.12-13.19-8.52-18.6Z"></path><circle class="cls-7" cx="278.67" cy="35.03" r="15.55"></circle><path class="cls-5" d="M136.34,69.83c-8.06-5.67-17.87-9.03-28.47-9.03h-38.96c-27.38,0-49.57,22.2-49.57,49.57h0s40.4,0,40.4,0v-19.41c0-14.08,11.41-25.49,25.49-25.49,9.56,0,17.88,5.27,22.24,13.06,6.95-2.15,14.7-3.48,22.91-3.75,1.86-1.8,3.86-3.45,5.98-4.94Z"></path><path class="cls-9" d="M130.36,74.77c-8.21,.27-15.95,1.6-22.91,3.75,2.06,3.68,3.25,7.91,3.25,12.43v19.41h4.54c0-13.98,5.81-26.59,15.12-35.6Z"></path><path class="cls-4" d="M155.64,97.28v13.08h1.8c0-4.54-.66-8.91-1.8-13.08Z"></path><circle class="cls-5" cx="86.82" cy="35.03" r="15.55" transform="translate(-5.72 20.88) rotate(-13.28)"></circle><path class="cls-4" d="M159.01,78.32c4.39-7.67,12.64-12.86,22.12-12.86s18.49,5.67,22.7,13.94c6.7-2.36,14.24-3.92,22.28-4.47,1.91-1.86,3.97-3.57,6.16-5.11-8.06-5.68-17.88-9.04-28.49-9.04h-38.96c-10.61,0-20.41,3.36-28.47,9.03,2.28,1.61,4.44,3.38,6.42,5.34,5.74,.56,11.2,1.64,16.25,3.16Z"></path><path class="cls-7" d="M232.61,74.72c1.94,0,3.86,.06,5.76,.18-1.89-1.84-3.93-3.53-6.1-5.05-2.19,1.54-4.25,3.24-6.16,5.11,2.13-.15,4.3-.23,6.5-.23Z"></path><path class="cls-9" d="M155.64,97.28v-6.33c0-4.6,1.24-8.91,3.37-12.63-5.05-1.52-10.51-2.59-16.25-3.16,6.08,6.02,10.56,13.62,12.88,22.12Z"></path><path class="cls-8" d="M226.11,74.94c-8.04,.55-15.58,2.11-22.28,4.47,1.77,3.47,2.79,7.38,2.79,11.54v19.41h4.57c0-13.89,5.73-26.43,14.93-35.43Z"></path><path class="cls-7" d="M251.58,97.39v12.98h1.78c0-4.5-.65-8.83-1.78-12.98Z"></path><path class="cls-7" d="M238.37,74.89c-1.89-.11-3.81-.18-5.76-.18-2.2,0-4.36,.08-6.5,.23-9.2,9-14.93,21.54-14.93,35.43h0s40.4,0,40.4,0v-12.98c-2.35-8.67-6.96-16.41-13.21-22.5Z"></path><path class="cls-4" d="M133.55,74.72c3.13,0,6.21,.16,9.21,.45-1.98-1.96-4.13-3.73-6.42-5.34-2.12,1.49-4.12,3.14-5.98,4.94,1.06-.04,2.12-.06,3.19-.06Z"></path><path class="cls-4" d="M142.76,75.17c-3-.29-6.07-.45-9.21-.45-1.07,0-2.13,.02-3.19,.06-9.31,9.01-15.12,21.62-15.12,35.6h0s40.4,0,40.4,0v-13.08c-2.32-8.5-6.8-16.09-12.88-22.12Z"></path><circle class="cls-4" cx="182.73" cy="35.03" r="15.55" transform="translate(28.75 139.47) rotate(-45)"></circle><circle class="cls-2" cx="134.93" cy="49.92" r="11.44"></circle><circle class="cls-6" cx="231.05" cy="49.92" r="11.44"></circle></g><path class="cls-7" d="M280.24,191.37h33.88s-.23,44.47-111.74,61.51v-5.76s48.37-9.45,77.86-55.75Z"></path><path class="cls-6" d="M235.6,190.59h26.94s-1.97,36.66-71.85,51.43l-.49-2.46s40.36-20.18,45.4-48.97Z"></path><path class="cls-5" d="M85.92,191.37H52.04s.23,44.47,111.74,61.51v-5.76s-48.37-9.45-77.86-55.75Z"></path><path class="cls-2" d="M130.56,190.59h-26.94s1.97,36.66,71.85,51.43l.49-2.46s-40.36-20.18-45.4-48.97Z"></path><g><path class="cls-3" d="M393.03,31.07v49.47c0,6.04,1.48,10.68,4.44,13.93,2.96,3.25,7.02,4.87,12.19,4.87s9.38-1.62,12.32-4.87c2.94-3.25,4.42-7.89,4.42-13.93V31.07h12.47v47.62c0,10.56-2.5,18.64-7.49,24.26-5,5.61-12.2,8.42-21.61,8.42s-16.96-2.82-21.82-8.45c-4.86-5.63-7.29-13.71-7.29-24.23V31.07h12.37Z"></path><path class="cls-3" d="M504.83,90.55c4,5.61,8.76,8.42,14.27,8.42,3.42,0,6.24-1.1,8.47-3.28,2.22-2.19,3.34-5,3.34-8.42,0-2.65-.75-4.85-2.26-6.62-1.51-1.76-3.83-3.32-6.98-4.66-7.8-2.72-13.43-5.99-16.89-9.8-3.46-3.81-5.19-8.46-5.19-13.93,0-6.46,2.27-11.91,6.8-16.34,4.53-4.43,10.14-6.65,16.81-6.65,8.11,0,14.56,2.97,19.35,8.9l-7.34,9.22c-1.85-2.33-3.65-3.98-5.42-4.95-1.76-.97-3.77-1.46-6.03-1.46-3.15,0-5.71,.97-7.67,2.91s-2.95,4.47-2.95,7.57,.75,5.29,2.26,6.86c1.51,1.57,4.5,3.24,8.98,5,2.53,1.17,4.59,2.15,6.16,2.94,1.57,.79,3.21,1.74,4.9,2.83,1.69,1.1,3.02,2.16,3.98,3.2,.96,1.04,1.85,2.27,2.67,3.68,.82,1.41,1.4,2.98,1.75,4.69,.34,1.71,.51,3.66,.51,5.85,0,7.24-2.36,13.17-7.08,17.8-4.72,4.63-10.85,6.94-18.38,6.94-4.59,0-8.66-.9-12.22-2.7-3.56-1.8-6.95-4.59-10.16-8.37l8.32-9.64Z"></path><path class="cls-3" d="M559.12,106.18c0-1.12,.4-2.1,1.2-2.94s1.75-1.25,2.86-1.25,2.08,.41,2.87,1.24c.79,.83,1.19,1.81,1.19,2.95s-.39,2.15-1.18,2.96c-.78,.82-1.74,1.23-2.88,1.23s-2.06-.41-2.86-1.24c-.8-.83-1.2-1.81-1.2-2.95Z"></path><path class="cls-3" d="M448.9,106.18c0-1.12,.4-2.1,1.2-2.94s1.75-1.25,2.86-1.25,2.08,.41,2.87,1.24c.79,.83,1.19,1.81,1.19,2.95s-.39,2.15-1.18,2.96-1.74,1.23-2.88,1.23-2.06-.41-2.86-1.24c-.8-.83-1.2-1.81-1.2-2.95Z"></path><path class="cls-3" d="M632.93,28.26l38.63,81.03h-14.42l-7.73-17.37h-32.95l-7.62,17.37h-14.53l38.63-81.03Zm-11.29,52.59h22.58l-8.1-18.01c-1.26-2.61-2.06-4.73-2.4-6.36-.34-1.62-.6-4.17-.78-7.63-.18,3.53-.44,6.08-.78,7.65-.34,1.57-1.14,3.68-2.4,6.33l-8.1,18.01Z"></path><path class="cls-3" d="M683.01,31.07h13.02V97.8h24.58v11.49h-37.6V31.07Z"></path><path class="cls-3" d="M736.66,31.07h13.02V97.8h24.58v11.49h-37.6V31.07Z"></path><path class="cls-3" d="M790.3,31.07h13.02V109.29h-13.02V31.07Z"></path><path class="cls-3" d="M853.56,28.26l38.63,81.03h-14.42l-7.73-17.37h-32.95l-7.62,17.37h-14.53l38.63-81.03Zm-11.29,52.59h22.58l-8.1-18.01c-1.26-2.61-2.06-4.73-2.4-6.36-.34-1.62-.6-4.17-.78-7.63-.18,3.53-.44,6.08-.78,7.65-.34,1.57-1.14,3.68-2.4,6.33l-8.1,18.01Z"></path><path class="cls-3" d="M903.64,28.15l53.11,49.47c2.7,2.65,4.92,6.09,6.64,10.33-.69-5.08-1.03-9.39-1.03-12.92V31.07h13.07V112.63l-52.89-49.52c-1.37-1.34-4.07-5.03-8.1-11.07,1.48,4.03,2.21,7.13,2.21,9.32v47.93h-13.02V28.15Z"></path><path class="cls-3" d="M997.59,54.37c2.2-5.05,5.16-9.38,8.89-13,3.73-3.62,8.19-6.49,13.4-8.61,5.2-2.12,10.7-3.18,16.5-3.18,3.78,0,7.04,.39,9.78,1.16,2.74,.78,6.18,2.26,10.32,4.45v15.84c-3.31-3.18-6.64-5.49-9.99-6.94s-7.02-2.17-11.02-2.17c-5.08,0-9.74,1.25-13.99,3.76-4.25,2.51-7.59,5.94-10.02,10.3-2.43,4.36-3.65,9.15-3.65,14.38s1.23,10.06,3.7,14.41c2.47,4.34,5.85,7.76,10.16,10.25,4.3,2.49,9.05,3.73,14.24,3.73,3.96,0,7.55-.66,10.78-1.99,3.22-1.32,6.49-3.5,9.81-6.54v14.94l-1.4,.64c-3.96,1.84-7.18,3.12-9.64,3.84-2.47,.72-5.52,1.08-9.16,1.08-5.83,0-11.35-1.03-16.56-3.1-5.2-2.07-9.66-4.87-13.37-8.42-3.71-3.55-6.64-7.82-8.81-12.82-2.16-5-3.24-10.3-3.24-15.92s1.1-11.02,3.3-16.1Z"></path><path class="cls-3" d="M1074.08,109.29V31.07h41.81v11.65h-28.79v20.71h28.15v11.49h-28.15v22.88h28.79v11.49h-41.81Z"></path></g></svg>