<svg xmlns="http://www.w3.org/2000/svg" xmlns:xlink="http://www.w3.org/1999/xlink" width="350" viewBox="0 0 262.5 262.500001" height="350" preserveAspectRatio="xMidYMid meet"><defs><clipPath id="833409ac4a"><path d="M 80.988281 50.191406 L 241.425781 50.191406 L 241.425781 253.914062 L 80.988281 253.914062 Z M 80.988281 50.191406 " clip-rule="nonzero"></path></clipPath><clipPath id="16fd57576c"><path d="M 24.855469 100.171875 L 90.476562 100.171875 L 90.476562 253.914062 L 24.855469 253.914062 Z M 24.855469 100.171875 " clip-rule="nonzero"></path></clipPath></defs><path fill="#b9ea8f" d="M 131.914062 36.023438 C 134.097656 46.808594 144.605469 53.777344 155.378906 51.589844 C 166.152344 49.402344 173.117188 38.882812 170.929688 28.097656 C 168.746094 17.3125 158.238281 10.34375 147.464844 12.53125 C 136.6875 14.71875 129.726562 25.238281 131.914062 36.023438 " fill-opacity="1" fill-rule="nonzero"></path><path fill="#ffffff" d="M 134.5625 35.484375 C 136.449219 44.789062 145.546875 50.824219 154.84375 48.9375 C 159.34375 48.023438 163.222656 45.410156 165.761719 41.574219 C 168.300781 37.738281 169.195312 33.144531 168.28125 28.636719 C 167.367188 24.128906 164.753906 20.246094 160.925781 17.707031 C 157.09375 15.164062 152.503906 14.269531 148 15.183594 C 138.703125 17.070312 132.675781 26.175781 134.5625 35.484375 Z M 151.375 54.699219 C 146.980469 54.699219 142.679688 53.410156 138.929688 50.925781 C 133.898438 47.585938 130.464844 42.484375 129.261719 36.558594 C 128.0625 30.636719 129.238281 24.597656 132.574219 19.558594 C 135.910156 14.519531 141.007812 11.082031 146.925781 9.878906 C 152.84375 8.675781 158.875 9.855469 163.910156 13.195312 C 168.945312 16.535156 172.378906 21.636719 173.582031 27.558594 C 174.78125 33.484375 173.605469 39.523438 170.269531 44.5625 C 166.933594 49.601562 161.835938 53.039062 155.917969 54.242188 C 154.402344 54.546875 152.882812 54.699219 151.375 54.699219 " fill-opacity="1" fill-rule="nonzero"></path><path fill="#b9ea8f" d="M 85.09375 56.25 C 87.214844 53.109375 91.4375 51.945312 94.699219 53.871094 C 94.722656 53.886719 94.746094 53.902344 94.773438 53.914062 L 115.574219 66.511719 L 146.488281 64.199219 L 166.839844 61.882812 C 170.929688 61.050781 174.972656 61.945312 178.210938 64.066406 L 176.46875 62.84375 L 213.964844 84.480469 C 215.386719 85.296875 216.558594 86.492188 217.351562 87.925781 L 231.757812 113.953125 C 233.960938 117.933594 232.585938 122.949219 228.65625 125.242188 L 228.46875 125.355469 C 224.257812 127.8125 218.894531 126.308594 216.601562 122.050781 C 211.277344 112.179688 202.703125 96.472656 202.703125 96.472656 L 177.722656 84.851562 L 188.003906 89.632812 L 196.960938 133.832031 L 205.972656 189.214844 L 235.261719 220.214844 C 239.976562 225.199219 239.867188 233.035156 235.015625 237.890625 C 229.996094 242.917969 221.828125 242.828125 216.914062 237.695312 L 181.929688 201.144531 C 180.84375 200.007812 180.0625 198.621094 179.65625 197.105469 L 165.550781 145.578125 L 168.742188 160.210938 L 155.265625 192.074219 L 155.265625 239.160156 C 155.265625 245.8125 149.875 251.210938 143.226562 251.210938 C 136.578125 251.210938 131.1875 245.8125 131.1875 239.160156 L 131.1875 185.105469 C 131.1875 183.953125 131.402344 182.808594 131.820312 181.730469 L 149.128906 137.09375 L 141.777344 84.269531 L 115.425781 83.917969 C 114.007812 83.816406 112.636719 83.386719 111.425781 82.652344 L 87.523438 67.71875 C 83.613281 65.277344 82.507812 60.070312 85.09375 56.25 " fill-opacity="1" fill-rule="nonzero"></path><g clip-path="url(#833409ac4a)"><path fill="#ffffff" d="M 115.542969 81.210938 L 141.8125 81.5625 C 143.148438 81.582031 144.269531 82.570312 144.453125 83.894531 L 151.808594 136.722656 C 151.871094 137.179688 151.816406 137.644531 151.648438 138.074219 L 134.339844 182.710938 C 134.042969 183.476562 133.890625 184.285156 133.890625 185.105469 L 133.890625 239.160156 C 133.890625 244.3125 138.078125 248.503906 143.226562 248.503906 C 148.375 248.503906 152.5625 244.3125 152.5625 239.160156 L 152.5625 192.074219 C 152.5625 191.710938 152.636719 191.351562 152.777344 191.019531 L 165.917969 159.949219 L 162.910156 146.152344 C 162.597656 144.722656 163.484375 143.300781 164.90625 142.949219 C 166.328125 142.597656 167.769531 143.445312 168.160156 144.863281 L 182.261719 196.390625 C 182.265625 196.394531 182.265625 196.398438 182.265625 196.402344 C 182.554688 197.476562 183.113281 198.46875 183.878906 199.269531 L 218.867188 235.824219 C 220.734375 237.777344 223.253906 238.871094 225.953125 238.898438 C 228.65625 238.929688 231.195312 237.890625 233.105469 235.976562 C 236.949219 232.132812 237.03125 226.023438 233.300781 222.074219 L 204.007812 191.074219 C 203.636719 190.679688 203.390625 190.183594 203.304688 189.648438 L 194.300781 134.320312 L 185.628906 91.511719 L 176.585938 87.304688 C 175.230469 86.675781 174.644531 85.070312 175.273438 83.710938 C 175.902344 82.359375 177.507812 81.769531 178.863281 82.398438 L 189.144531 87.179688 L 203.84375 94.015625 C 204.367188 94.261719 204.800781 94.667969 205.074219 95.171875 C 205.160156 95.332031 213.714844 111 218.980469 120.765625 C 219.734375 122.171875 220.996094 123.179688 222.53125 123.613281 C 224.078125 124.046875 225.703125 123.835938 227.105469 123.015625 L 227.296875 122.90625 C 229.933594 121.367188 230.875 117.9375 229.394531 115.265625 L 214.988281 89.238281 C 214.429688 88.230469 213.609375 87.398438 212.613281 86.824219 L 177.816406 66.746094 C 177.441406 66.691406 177.070312 66.554688 176.730469 66.332031 C 173.953125 64.511719 170.628906 63.871094 167.375 64.535156 C 167.300781 64.546875 167.222656 64.558594 167.144531 64.570312 L 146.792969 66.890625 C 146.757812 66.894531 146.722656 66.898438 146.6875 66.898438 L 115.773438 69.210938 C 115.214844 69.25 114.65625 69.117188 114.175781 68.824219 L 93.375 56.230469 L 93.320312 56.199219 C 91.378906 55.050781 88.691406 55.753906 87.332031 57.765625 C 86.496094 59 86.207031 60.484375 86.515625 61.941406 C 86.824219 63.398438 87.691406 64.632812 88.953125 65.425781 L 112.835938 80.34375 C 113.65625 80.835938 114.589844 81.132812 115.542969 81.210938 Z M 143.226562 253.914062 C 135.097656 253.914062 128.484375 247.292969 128.484375 239.160156 L 128.484375 185.105469 C 128.484375 183.613281 128.761719 182.148438 129.300781 180.753906 L 146.355469 136.769531 L 139.417969 86.945312 L 115.386719 86.621094 C 115.335938 86.621094 115.285156 86.621094 115.238281 86.617188 C 113.402344 86.488281 111.601562 85.917969 110.027344 84.96875 C 110.015625 84.960938 110.003906 84.957031 109.992188 84.945312 L 86.089844 70.015625 C 83.570312 68.441406 81.84375 65.972656 81.226562 63.0625 C 80.613281 60.15625 81.1875 57.195312 82.851562 54.734375 C 84.261719 52.652344 86.371094 51.164062 88.796875 50.539062 C 91.308594 49.894531 93.890625 50.25 96.074219 51.539062 C 96.105469 51.5625 96.140625 51.582031 96.175781 51.601562 L 116.234375 63.75 L 146.230469 61.507812 L 166.421875 59.207031 C 169.847656 58.535156 173.320312 58.867188 176.496094 60.136719 C 176.945312 60.140625 177.402344 60.257812 177.816406 60.5 L 215.3125 82.132812 C 217.160156 83.199219 218.683594 84.75 219.714844 86.617188 L 234.121094 112.640625 C 235.53125 115.191406 235.886719 118.140625 235.113281 120.949219 C 234.34375 123.757812 232.535156 126.113281 230.019531 127.582031 L 229.832031 127.691406 C 227.152344 129.257812 224.039062 129.65625 221.070312 128.824219 C 218.113281 127.992188 215.679688 126.042969 214.222656 123.335938 C 209.636719 114.835938 202.558594 101.847656 200.757812 98.550781 L 191.71875 94.34375 L 199.613281 133.296875 C 199.617188 133.328125 199.625 133.363281 199.628906 133.398438 L 208.507812 187.960938 L 237.226562 218.355469 C 239.992188 221.28125 241.484375 225.113281 241.429688 229.140625 C 241.371094 233.167969 239.773438 236.957031 236.925781 239.804688 C 233.980469 242.753906 230.0625 244.355469 225.894531 244.308594 C 221.730469 244.265625 217.847656 242.582031 214.960938 239.570312 L 179.976562 203.015625 C 178.582031 201.558594 177.570312 199.757812 177.046875 197.8125 L 168.6875 167.277344 L 157.96875 192.621094 L 157.96875 239.160156 C 157.96875 247.292969 151.355469 253.914062 143.226562 253.914062 " fill-opacity="1" fill-rule="nonzero"></path></g><path fill="#6fbbf4" d="M 70.292969 22.136719 L 121.359375 98.226562 C 122.695312 100.214844 122.230469 102.90625 120.304688 104.328125 C 118.386719 105.746094 115.695312 105.414062 114.183594 103.570312 L 56.078125 32.71875 C 52.652344 28.542969 53.71875 22.296875 58.335938 19.496094 C 62.386719 17.039062 67.652344 18.199219 70.292969 22.136719 " fill-opacity="1" fill-rule="nonzero"></path><path fill="#ffffff" d="M 62.929688 20.914062 C 61.839844 20.914062 60.734375 21.203125 59.734375 21.808594 C 58.207031 22.738281 57.15625 24.285156 56.855469 26.046875 C 56.554688 27.8125 57.03125 29.617188 58.167969 31.003906 L 116.273438 101.851562 C 116.871094 102.582031 117.9375 102.714844 118.699219 102.152344 C 119.460938 101.589844 119.644531 100.527344 119.117188 99.734375 L 68.046875 23.644531 C 66.859375 21.875 64.917969 20.914062 62.929688 20.914062 Z M 117.644531 107.914062 C 115.566406 107.914062 113.511719 107.011719 112.09375 105.285156 L 53.988281 34.4375 C 51.859375 31.839844 50.960938 28.449219 51.527344 25.136719 C 52.089844 21.824219 54.0625 18.925781 56.933594 17.183594 C 62.230469 13.96875 69.082031 15.480469 72.535156 20.628906 L 123.601562 96.71875 C 125.75 99.917969 125.003906 104.214844 121.910156 106.503906 C 120.628906 107.453125 119.132812 107.914062 117.644531 107.914062 " fill-opacity="1" fill-rule="nonzero"></path><path fill="#6fbbf4" d="M 85.828125 119.734375 C 88.660156 115.492188 88.429688 109.695312 84.839844 106.078125 C 79.941406 101.144531 72.09375 102.125 68.4375 107.597656 L 55.601562 126.804688 L 48.28125 126.785156 C 41.0625 126.765625 35.1875 132.59375 35.148438 139.820312 C 35.054688 157.476562 34.898438 186.808594 34.867188 187.21875 L 27.609375 240.402344 C 27.207031 245.792969 31.25 250.488281 36.644531 250.890625 C 36.859375 250.90625 37.074219 250.914062 37.285156 250.917969 C 42.402344 250.96875 46.75 247.035156 47.136719 241.859375 L 51.96875 200.84375 C 51.996094 200.261719 52.859375 200.273438 52.867188 200.855469 L 56.582031 241.796875 C 56.78125 247.035156 61.070312 251.15625 66.257812 251.207031 C 66.417969 251.210938 66.578125 251.207031 66.738281 251.203125 C 72.140625 250.996094 76.355469 246.449219 76.148438 241.046875 L 70.988281 188.285156 C 70.976562 188.007812 71.261719 159.335938 71.4375 141.265625 L 85.828125 119.734375 " fill-opacity="1" fill-rule="nonzero"></path><g clip-path="url(#16fd57576c)"><path fill="#ffffff" d="M 73.691406 188.253906 Z M 55.566406 200.671875 L 59.273438 241.550781 C 59.277344 241.597656 59.28125 241.644531 59.28125 241.691406 C 59.425781 245.472656 62.503906 248.464844 66.285156 248.503906 C 66.390625 248.503906 66.507812 248.503906 66.640625 248.5 C 68.53125 248.425781 70.28125 247.621094 71.566406 246.234375 C 72.835938 244.863281 73.5 243.085938 73.449219 241.226562 L 68.296875 188.550781 C 68.292969 188.496094 68.289062 188.445312 68.289062 188.390625 C 68.28125 188.246094 68.273438 188.007812 68.734375 141.238281 C 68.742188 140.710938 68.898438 140.199219 69.191406 139.761719 L 83.578125 118.230469 C 85.796875 114.910156 85.519531 110.605469 82.921875 107.988281 C 81.175781 106.230469 78.894531 105.390625 76.496094 105.621094 C 74.125 105.851562 72.007812 107.121094 70.683594 109.101562 L 57.847656 128.308594 C 57.347656 129.058594 56.503906 129.511719 55.601562 129.511719 C 55.601562 129.511719 55.597656 129.511719 55.59375 129.511719 L 48.273438 129.492188 C 48.265625 129.492188 48.257812 129.492188 48.246094 129.492188 C 42.542969 129.492188 37.882812 134.125 37.851562 139.835938 C 37.605469 186.851562 37.578125 187.238281 37.5625 187.421875 C 37.558594 187.476562 37.554688 187.53125 37.546875 187.585938 L 30.300781 240.679688 C 30.179688 242.539062 30.78125 244.335938 32 245.75 C 33.234375 247.183594 34.957031 248.050781 36.84375 248.191406 C 36.996094 248.203125 37.15625 248.210938 37.3125 248.210938 C 41.035156 248.246094 44.164062 245.371094 44.441406 241.660156 C 44.445312 241.621094 44.449219 241.582031 44.453125 241.542969 L 49.277344 200.585938 C 49.421875 198.9375 50.796875 197.6875 52.464844 197.707031 C 54.132812 197.734375 55.46875 199.023438 55.566406 200.671875 Z M 66.359375 253.914062 C 66.316406 253.914062 66.269531 253.914062 66.226562 253.914062 C 59.585938 253.847656 54.175781 248.609375 53.882812 241.976562 L 52.125 222.613281 L 49.828125 242.125 C 49.574219 245.289062 48.148438 248.203125 45.808594 250.347656 C 43.496094 252.460938 40.507812 253.625 37.382812 253.625 C 37.34375 253.625 37.300781 253.625 37.257812 253.625 C 36.988281 253.621094 36.714844 253.609375 36.445312 253.589844 C 33.113281 253.339844 30.082031 251.808594 27.90625 249.28125 C 25.726562 246.753906 24.664062 243.527344 24.914062 240.199219 C 24.917969 240.144531 24.925781 240.089844 24.933594 240.035156 L 32.167969 187 C 32.195312 185.316406 32.296875 168.234375 32.445312 139.808594 C 32.46875 135.589844 34.128906 131.632812 37.117188 128.664062 C 40.097656 125.707031 44.050781 124.078125 48.246094 124.078125 C 48.261719 124.078125 48.273438 124.078125 48.289062 124.078125 L 54.160156 124.09375 L 66.191406 106.09375 C 68.417969 102.757812 71.984375 100.621094 75.976562 100.234375 C 79.960938 99.851562 83.886719 101.285156 86.753906 104.171875 C 91.160156 108.609375 91.714844 115.785156 88.074219 121.238281 L 74.132812 142.101562 C 73.765625 179.464844 73.695312 187.175781 73.691406 188.152344 L 78.839844 240.785156 C 78.84375 240.839844 78.847656 240.890625 78.847656 240.945312 C 78.976562 244.28125 77.796875 247.464844 75.527344 249.914062 C 73.261719 252.359375 70.175781 253.777344 66.84375 253.90625 C 66.835938 253.90625 66.832031 253.90625 66.824219 253.90625 C 66.660156 253.910156 66.503906 253.914062 66.359375 253.914062 " fill-opacity="1" fill-rule="nonzero"></path></g><path fill="#b9ea8f" d="M 57.433594 124.179688 C 47.515625 126.195312 37.835938 119.789062 35.820312 109.875 C 33.804688 99.957031 40.210938 90.285156 50.128906 88.269531 C 60.050781 86.253906 69.726562 92.660156 71.742188 102.574219 C 73.761719 112.492188 67.355469 122.164062 57.433594 124.179688 " fill-opacity="1" fill-rule="nonzero"></path><path fill="#ffffff" d="M 53.785156 90.609375 C 52.757812 90.609375 51.714844 90.710938 50.667969 90.921875 C 46.578125 91.753906 43.054688 94.125 40.75 97.605469 C 38.449219 101.082031 37.636719 105.246094 38.46875 109.335938 C 40.183594 117.773438 48.453125 123.242188 56.894531 121.527344 C 60.988281 120.695312 64.507812 118.324219 66.8125 114.84375 C 69.117188 111.367188 69.925781 107.203125 69.09375 103.113281 C 67.589844 95.722656 61.058594 90.609375 53.785156 90.609375 Z M 53.738281 127.257812 C 49.65625 127.257812 45.65625 126.0625 42.171875 123.757812 C 37.488281 120.660156 34.292969 115.917969 33.171875 110.414062 C 32.050781 104.910156 33.144531 99.296875 36.246094 94.617188 C 39.347656 89.933594 44.089844 86.738281 49.59375 85.617188 C 55.097656 84.5 60.707031 85.589844 65.390625 88.691406 C 70.078125 91.792969 73.273438 96.53125 74.390625 102.035156 C 75.511719 107.539062 74.421875 113.152344 71.316406 117.835938 C 68.214844 122.519531 63.476562 125.710938 57.972656 126.832031 C 56.5625 127.117188 55.144531 127.257812 53.738281 127.257812 " fill-opacity="1" fill-rule="nonzero"></path><path fill="#6fbbf4" d="M 73.914062 80 C 70.6875 76.050781 65.085938 74.578125 60.578125 76.960938 C 54.4375 80.214844 53.082031 88.011719 57.246094 93.109375 L 74.066406 113.710938 C 77.441406 117.84375 83.355469 118.824219 87.878906 116 C 93.300781 112.617188 94.523438 105.238281 90.476562 100.285156 L 73.914062 80 " fill-opacity="1" fill-rule="nonzero"></path><path fill="#ffffff" d="M 65.277344 78.511719 C 64.09375 78.511719 62.917969 78.785156 61.84375 79.355469 C 59.65625 80.511719 58.1875 82.453125 57.710938 84.816406 C 57.238281 87.15625 57.832031 89.550781 59.335938 91.398438 L 76.160156 112 C 78.664062 115.066406 83.089844 115.800781 86.449219 113.703125 C 88.375 112.503906 89.691406 110.53125 90.0625 108.289062 C 90.433594 106.046875 89.820312 103.753906 88.386719 101.996094 L 71.820312 81.714844 C 70.128906 79.640625 67.6875 78.511719 65.277344 78.511719 Z M 82.273438 120.3125 C 81.550781 120.3125 80.824219 120.253906 80.101562 120.132812 C 76.90625 119.605469 74.023438 117.933594 71.976562 115.425781 L 55.152344 94.824219 C 52.613281 91.714844 51.617188 87.679688 52.410156 83.746094 C 53.203125 79.816406 55.722656 76.472656 59.316406 74.570312 C 64.839844 71.648438 71.859375 73.210938 76.007812 78.289062 L 92.570312 98.570312 C 94.988281 101.535156 96.019531 105.398438 95.394531 109.171875 C 94.769531 112.949219 92.550781 116.273438 89.308594 118.296875 C 87.183594 119.621094 84.746094 120.3125 82.273438 120.3125 " fill-opacity="1" fill-rule="nonzero"></path><path fill="#6fbbf4" d="M 49.25 114.417969 C 43.964844 112.585938 38.183594 115.519531 35.898438 120.628906 L 24.890625 145.234375 C 22.78125 149.949219 24.441406 155.496094 28.792969 158.273438 C 34.097656 161.65625 41.167969 159.589844 43.820312 153.878906 L 55.476562 128.785156 C 57.996094 123.148438 55.210938 116.484375 49.25 114.417969 " fill-opacity="1" fill-rule="nonzero"></path><path fill="#ffffff" d="M 45.996094 116.578125 C 42.867188 116.578125 39.789062 118.550781 38.363281 121.734375 L 27.355469 146.339844 C 25.808594 149.800781 27.050781 153.953125 30.246094 155.992188 C 32.117188 157.183594 34.414062 157.511719 36.542969 156.890625 C 38.675781 156.265625 40.433594 154.753906 41.367188 152.742188 L 53.015625 127.664062 C 53.910156 125.648438 53.925781 123.332031 53.050781 121.304688 C 52.164062 119.253906 50.5 117.714844 48.367188 116.972656 C 47.589844 116.707031 46.789062 116.578125 45.996094 116.578125 Z M 34.386719 162.609375 C 31.914062 162.609375 29.46875 161.910156 27.339844 160.554688 C 24.691406 158.863281 22.730469 156.273438 21.828125 153.257812 C 20.925781 150.242188 21.136719 147 22.421875 144.128906 L 33.429688 119.523438 C 34.8125 116.429688 37.25 113.929688 40.285156 112.476562 C 43.4375 110.972656 46.9375 110.753906 50.136719 111.859375 C 51.945312 112.488281 53.558594 113.464844 54.933594 114.761719 C 56.253906 116.007812 57.289062 117.484375 58.011719 119.160156 C 59.488281 122.578125 59.464844 126.492188 57.941406 129.890625 C 57.9375 129.902344 57.929688 129.914062 57.925781 129.925781 L 46.269531 155.023438 C 44.675781 158.449219 41.683594 161.023438 38.058594 162.085938 C 36.851562 162.4375 35.617188 162.609375 34.386719 162.609375 " fill-opacity="1" fill-rule="nonzero"></path></svg>