<svg xmlns="http://www.w3.org/2000/svg" xmlns:xlink="http://www.w3.org/1999/xlink" width="85" viewBox="0 0 63.75 63.749998" height="85" preserveAspectRatio="xMidYMid meet"><defs><clipPath id="e8ad9b204d"><path d="M 3.824219 3.824219 L 60.074219 3.824219 L 60.074219 60.074219 L 3.824219 60.074219 Z M 3.824219 3.824219 " clip-rule="nonzero"></path></clipPath></defs><g clip-path="url(#e8ad9b204d)"><path fill="#6fbbf4" d="M 31.949219 3.824219 C 16.417969 3.824219 3.824219 16.417969 3.824219 31.949219 C 3.824219 47.480469 16.417969 60.074219 31.949219 60.074219 C 47.480469 60.074219 60.074219 47.480469 60.074219 31.949219 C 60.074219 16.417969 47.480469 3.824219 31.949219 3.824219 Z M 31.949219 3.824219 " fill-opacity="1" fill-rule="nonzero"></path></g><path fill="#ffffff" d="M 35.429688 20.308594 C 35.078125 19.855469 34.601562 19.628906 34.011719 19.628906 C 33.492188 19.628906 33.140625 19.730469 32.949219 19.921875 C 32.753906 20.125 32.359375 20.648438 31.734375 21.519531 C 31.109375 22.382812 30.410156 23.164062 29.601562 23.867188 C 28.796875 24.570312 27.734375 25.226562 26.394531 25.863281 C 25.5 26.28125 24.875 26.621094 24.511719 26.894531 C 24.160156 27.15625 23.980469 27.574219 23.980469 28.140625 C 23.980469 28.628906 24.160156 29.058594 24.523438 29.433594 C 24.886719 29.808594 25.296875 29.988281 25.761719 29.988281 C 26.734375 29.988281 28.628906 28.910156 31.441406 26.746094 L 31.441406 41.859375 C 31.441406 42.742188 31.644531 43.410156 32.050781 43.863281 C 32.460938 44.316406 33.003906 44.542969 33.683594 44.542969 C 35.203125 44.542969 35.964844 43.433594 35.964844 41.210938 L 35.964844 22.191406 C 35.964844 21.394531 35.78125 20.761719 35.429688 20.308594 " fill-opacity="1" fill-rule="nonzero"></path></svg>