<svg xmlns="http://www.w3.org/2000/svg" xmlns:xlink="http://www.w3.org/1999/xlink" width="85" viewBox="0 0 63.75 63.749998" height="85" preserveAspectRatio="xMidYMid meet"><defs><clipPath id="e899d5456b"><path d="M 0 0 L 63.5 0 L 63.5 63.5 L 0 63.5 Z M 0 0 " clip-rule="nonzero"></path></clipPath><clipPath id="b02f287273"><path d="M 3.789062 3.789062 L 60.039062 3.789062 L 60.039062 60.039062 L 3.789062 60.039062 Z M 3.789062 3.789062 " clip-rule="nonzero"></path></clipPath></defs><g clip-path="url(#e899d5456b)"><path fill="#ffffff" d="M 0 0 L 63.75 0 L 63.75 63.75 L 0 63.75 Z M 0 0 " fill-opacity="1" fill-rule="nonzero"></path><path fill="#ffffff" d="M 0 0 L 63.75 0 L 63.75 63.75 L 0 63.75 Z M 0 0 " fill-opacity="1" fill-rule="nonzero"></path></g><g clip-path="url(#b02f287273)"><path fill="#6fbbf4" d="M 31.914062 3.789062 C 16.382812 3.789062 3.789062 16.382812 3.789062 31.914062 C 3.789062 47.441406 16.382812 60.039062 31.914062 60.039062 C 47.441406 60.039062 60.039062 47.441406 60.039062 31.914062 C 60.039062 16.382812 47.441406 3.789062 31.914062 3.789062 Z M 31.914062 3.789062 " fill-opacity="1" fill-rule="nonzero"></path></g><path fill="#ffffff" d="M 25.292969 20.269531 C 24.941406 19.816406 24.464844 19.589844 23.875 19.589844 C 23.355469 19.589844 23.003906 19.691406 22.808594 19.886719 C 22.617188 20.089844 22.21875 20.609375 21.597656 21.484375 C 20.972656 22.34375 20.269531 23.128906 19.464844 23.828125 C 18.660156 24.53125 17.59375 25.191406 16.257812 25.824219 C 15.363281 26.246094 14.738281 26.585938 14.375 26.855469 C 14.023438 27.117188 13.84375 27.535156 13.84375 28.105469 C 13.84375 28.589844 14.023438 29.023438 14.386719 29.394531 C 14.75 29.769531 15.15625 29.953125 15.621094 29.953125 C 16.597656 29.953125 18.492188 28.875 21.300781 26.710938 L 21.300781 41.820312 C 21.300781 42.703125 21.507812 43.375 21.914062 43.828125 C 22.320312 44.28125 22.867188 44.507812 23.546875 44.507812 C 25.066406 44.507812 25.824219 43.394531 25.824219 41.175781 L 25.824219 22.152344 C 25.8125 21.359375 25.644531 20.722656 25.292969 20.269531 " fill-opacity="1" fill-rule="nonzero"></path><path fill="#ffffff" d="M 49.246094 24.398438 C 48.757812 23.34375 48.167969 22.457031 47.464844 21.742188 C 46.761719 21.03125 45.945312 20.484375 45.015625 20.113281 C 44.085938 19.738281 43.054688 19.554688 41.910156 19.554688 C 40.1875 19.554688 38.703125 19.976562 37.457031 20.8125 C 36.207031 21.652344 35.257812 22.867188 34.609375 24.464844 C 34.238281 25.429688 33.953125 26.585938 33.78125 27.921875 C 33.601562 29.261719 33.523438 30.765625 33.523438 32.433594 C 33.523438 33.726562 33.601562 34.929688 33.761719 36.050781 C 33.917969 37.160156 34.167969 38.179688 34.519531 39.101562 C 35.199219 40.777344 36.199219 42.105469 37.535156 43.054688 C 38.871094 44.007812 40.378906 44.484375 42.058594 44.484375 C 43.519531 44.484375 44.847656 44.132812 46.046875 43.417969 C 47.25 42.703125 48.214844 41.707031 48.972656 40.390625 C 49.574219 39.328125 49.980469 38.148438 50.199219 36.84375 C 50.425781 35.539062 50.527344 33.976562 50.527344 32.160156 C 50.515625 28.804688 50.085938 26.222656 49.246094 24.398438 M 45.605469 37.003906 C 45.367188 38.316406 44.972656 39.335938 44.394531 40.039062 C 43.816406 40.753906 43.023438 41.105469 42 41.105469 C 41.015625 41.105469 40.234375 40.765625 39.65625 40.085938 C 39.078125 39.40625 38.667969 38.398438 38.429688 37.070312 C 38.191406 35.742188 38.066406 34.03125 38.066406 31.957031 C 38.066406 28.898438 38.351562 26.617188 38.917969 25.144531 C 39.484375 23.671875 40.503906 22.933594 41.96875 22.933594 C 42.988281 22.933594 43.78125 23.261719 44.359375 23.921875 C 44.9375 24.578125 45.347656 25.554688 45.582031 26.84375 C 45.820312 28.136719 45.945312 29.792969 45.945312 31.820312 C 45.957031 33.953125 45.84375 35.675781 45.605469 37.003906 " fill-opacity="1" fill-rule="nonzero"></path></svg>