<svg xmlns="http://www.w3.org/2000/svg" xmlns:xlink="http://www.w3.org/1999/xlink" width="350" viewBox="0 0 262.5 262.500001" height="350" preserveAspectRatio="xMidYMid meet"><defs><clipPath id="4e34744693"><path d="M 5.015625 39.257812 L 213 39.257812 L 213 186 L 5.015625 186 Z M 5.015625 39.257812 " clip-rule="nonzero"></path></clipPath><clipPath id="198174156f"><path d="M 222 100 L 257.765625 100 L 257.765625 136 L 222 136 Z M 222 100 " clip-rule="nonzero"></path></clipPath><clipPath id="1e731e5112"><path d="M 24.039062 79.277344 L 137.777344 79.277344 L 137.777344 222.996094 L 24.039062 222.996094 Z M 24.039062 79.277344 " clip-rule="nonzero"></path></clipPath><clipPath id="d42f5fb4d2"><path d="M 130.59375 114.378906 L 177.351562 114.378906 L 177.351562 222.996094 L 130.59375 222.996094 Z M 130.59375 114.378906 " clip-rule="nonzero"></path></clipPath></defs><path fill="#6fbbf4" d="M 183.125 182.929688 C 199.179688 176.886719 210.597656 161.414062 210.597656 143.285156 C 210.597656 121.816406 194.578125 104.125 173.820312 101.347656 C 179.722656 94.980469 183.359375 86.488281 183.359375 77.125 C 183.359375 57.398438 167.328125 41.402344 147.550781 41.402344 C 135.898438 41.402344 125.574219 46.984375 119.035156 55.582031 C 112.496094 46.984375 102.171875 41.402344 90.519531 41.402344 C 73.660156 41.402344 59.558594 53.039062 55.753906 68.691406 C 28.097656 73.851562 7.15625 98.046875 7.15625 127.136719 C 7.15625 148.820312 18.789062 167.785156 36.164062 178.179688 L 183.125 182.929688 " fill-opacity="1" fill-rule="nonzero"></path><g clip-path="url(#4e34744693)"><path fill="#ffffff" d="M 183.125 185.066406 C 182.257812 185.066406 181.445312 184.539062 181.121094 183.683594 C 180.703125 182.578125 181.261719 181.347656 182.367188 180.929688 C 197.972656 175.058594 208.457031 159.929688 208.457031 143.285156 C 208.457031 123.246094 193.445312 106.128906 173.535156 103.464844 C 172.742188 103.359375 172.074219 102.824219 171.804688 102.070312 C 171.53125 101.320312 171.703125 100.484375 172.246094 99.898438 C 178.03125 93.65625 181.21875 85.570312 181.21875 77.125 C 181.21875 58.605469 166.117188 43.539062 147.550781 43.539062 C 136.957031 43.539062 127.183594 48.398438 120.742188 56.875 C 120.335938 57.40625 119.703125 57.71875 119.035156 57.71875 C 118.367188 57.71875 117.734375 57.40625 117.328125 56.875 C 110.886719 48.398438 101.113281 43.539062 90.519531 43.539062 C 74.949219 43.539062 61.507812 54.089844 57.835938 69.195312 C 57.636719 70.011719 56.976562 70.636719 56.148438 70.792969 C 29 75.855469 9.296875 99.554688 9.296875 127.136719 C 9.296875 147.476562 19.753906 165.871094 37.265625 176.347656 C 38.28125 176.953125 38.609375 178.265625 38 179.277344 C 37.390625 180.289062 36.078125 180.617188 35.0625 180.011719 C 16.527344 168.925781 5.015625 148.664062 5.015625 127.136719 C 5.015625 97.953125 25.542969 72.820312 54.023438 66.855469 C 58.609375 50.542969 73.425781 39.265625 90.519531 39.265625 C 101.5625 39.265625 111.8125 43.949219 119.035156 52.203125 C 126.257812 43.949219 136.507812 39.265625 147.550781 39.265625 C 168.476562 39.265625 185.503906 56.25 185.503906 77.125 C 185.503906 85.382812 182.800781 93.335938 177.832031 99.890625 C 197.976562 104.355469 212.742188 122.382812 212.742188 143.285156 C 212.742188 161.695312 201.140625 178.429688 183.878906 184.929688 C 183.632812 185.023438 183.375 185.066406 183.125 185.066406 " fill-opacity="1" fill-rule="nonzero"></path></g><path fill="#6fbbf4" d="M 224.515625 118.332031 C 224.515625 126.902344 231.480469 133.851562 240.070312 133.851562 C 248.660156 133.851562 255.625 126.902344 255.625 118.332031 C 255.625 109.765625 248.660156 102.816406 240.070312 102.816406 C 231.480469 102.816406 224.515625 109.765625 224.515625 118.332031 " fill-opacity="1" fill-rule="nonzero"></path><g clip-path="url(#198174156f)"><path fill="#ffffff" d="M 240.070312 104.953125 C 232.671875 104.953125 226.65625 110.957031 226.65625 118.332031 C 226.65625 125.710938 232.671875 131.714844 240.070312 131.714844 C 247.464844 131.714844 253.484375 125.710938 253.484375 118.332031 C 253.484375 110.957031 247.464844 104.953125 240.070312 104.953125 Z M 240.070312 135.988281 C 230.3125 135.988281 222.375 128.066406 222.375 118.332031 C 222.375 108.597656 230.3125 100.679688 240.070312 100.679688 C 249.828125 100.679688 257.765625 108.597656 257.765625 118.332031 C 257.765625 128.066406 249.828125 135.988281 240.070312 135.988281 " fill-opacity="1" fill-rule="nonzero"></path></g><path fill="#6fbbf4" d="M 203.871094 67.417969 C 203.871094 78.847656 213.152344 88.109375 224.609375 88.109375 C 236.0625 88.109375 245.347656 78.847656 245.347656 67.417969 C 245.347656 55.992188 236.0625 46.730469 224.609375 46.730469 C 213.152344 46.730469 203.871094 55.992188 203.871094 67.417969 " fill-opacity="1" fill-rule="nonzero"></path><path fill="#ffffff" d="M 224.609375 48.867188 C 214.351562 48.867188 206.011719 57.191406 206.011719 67.421875 C 206.011719 77.648438 214.351562 85.972656 224.609375 85.972656 C 234.863281 85.972656 243.207031 77.648438 243.207031 67.421875 C 243.207031 57.191406 234.863281 48.867188 224.609375 48.867188 Z M 224.609375 90.246094 C 211.992188 90.246094 201.726562 80.007812 201.726562 67.421875 C 201.726562 54.835938 211.992188 44.59375 224.609375 44.59375 C 237.222656 44.59375 247.488281 54.835938 247.488281 67.421875 C 247.488281 80.007812 237.222656 90.246094 224.609375 90.246094 " fill-opacity="1" fill-rule="nonzero"></path><path fill="#6fbbf4" d="M 101.589844 69.542969 C 100.050781 77.128906 92.636719 82.027344 85.035156 80.488281 C 77.429688 78.949219 72.519531 71.554688 74.0625 63.972656 C 75.601562 56.386719 83.015625 51.484375 90.617188 53.023438 C 98.222656 54.5625 103.132812 61.957031 101.589844 69.542969 " fill-opacity="1" fill-rule="nonzero"></path><path fill="#ffffff" d="M 87.800781 54.878906 C 85.488281 54.878906 83.222656 55.554688 81.25 56.859375 C 78.601562 58.609375 76.792969 61.285156 76.160156 64.394531 C 75.527344 67.503906 76.148438 70.671875 77.902344 73.316406 C 79.660156 75.960938 82.34375 77.765625 85.460938 78.394531 C 88.574219 79.023438 91.75 78.410156 94.402344 76.65625 C 97.050781 74.902344 98.859375 72.226562 99.492188 69.117188 C 100.125 66.007812 99.503906 62.839844 97.75 60.195312 C 95.992188 57.554688 93.308594 55.75 90.191406 55.117188 C 89.394531 54.957031 88.597656 54.878906 87.800781 54.878906 Z M 87.859375 82.910156 C 86.777344 82.910156 85.691406 82.800781 84.605469 82.582031 C 80.371094 81.722656 76.722656 79.273438 74.332031 75.675781 C 71.945312 72.082031 71.101562 67.773438 71.960938 63.546875 C 72.820312 59.320312 75.28125 55.679688 78.882812 53.296875 C 82.488281 50.914062 86.808594 50.074219 91.042969 50.929688 C 95.28125 51.789062 98.929688 54.242188 101.320312 57.835938 C 103.707031 61.433594 104.550781 65.742188 103.691406 69.96875 C 102.832031 74.195312 100.371094 77.835938 96.769531 80.21875 C 94.085938 81.992188 91.003906 82.910156 87.859375 82.910156 " fill-opacity="1" fill-rule="nonzero"></path><path fill="#b9ea8f" d="M 134.625 83.765625 C 133.128906 81.5625 130.148438 80.738281 127.847656 82.09375 C 127.832031 82.105469 127.8125 82.117188 127.796875 82.125 L 113.117188 90.984375 L 91.308594 89.359375 L 76.949219 87.726562 C 74.0625 87.144531 71.207031 87.773438 68.925781 89.265625 L 70.152344 88.402344 L 43.695312 103.617188 C 42.695312 104.191406 41.867188 105.03125 41.304688 106.042969 L 31.140625 124.34375 C 29.585938 127.140625 30.558594 130.667969 33.328125 132.28125 L 33.464844 132.359375 C 36.433594 134.089844 40.21875 133.03125 41.835938 130.039062 C 45.59375 123.097656 51.640625 112.050781 51.640625 112.050781 L 69.265625 103.878906 L 62.015625 107.242188 L 55.695312 138.320312 L 49.335938 177.265625 L 28.667969 199.0625 C 25.34375 202.570312 25.421875 208.078125 28.84375 211.492188 C 32.386719 215.027344 38.148438 214.964844 41.617188 211.355469 L 66.300781 185.652344 C 67.066406 184.855469 67.617188 183.878906 67.902344 182.8125 L 77.855469 146.578125 L 75.605469 156.871094 L 85.113281 179.273438 L 85.113281 212.382812 C 85.113281 217.0625 88.917969 220.859375 93.605469 220.859375 C 98.296875 220.859375 102.101562 217.0625 102.101562 212.382812 L 102.101562 174.378906 C 102.101562 173.566406 101.949219 172.761719 101.65625 172.003906 L 89.441406 140.617188 L 94.632812 103.46875 L 113.226562 103.222656 C 114.222656 103.152344 115.191406 102.847656 116.046875 102.332031 L 132.910156 91.832031 C 135.671875 90.113281 136.449219 86.453125 134.625 83.765625 " fill-opacity="1" fill-rule="nonzero"></path><g clip-path="url(#1e731e5112)"><path fill="#ffffff" d="M 77.84375 156.664062 L 87.085938 178.441406 C 87.199219 178.707031 87.253906 178.988281 87.253906 179.273438 L 87.253906 212.386719 C 87.253906 215.878906 90.105469 218.722656 93.609375 218.722656 C 97.109375 218.722656 99.960938 215.878906 99.960938 212.386719 L 99.960938 174.375 C 99.960938 173.828125 99.859375 173.289062 99.660156 172.777344 L 87.445312 141.386719 C 87.316406 141.046875 87.269531 140.679688 87.320312 140.320312 L 92.511719 103.175781 C 92.65625 102.128906 93.546875 101.347656 94.601562 101.332031 L 113.128906 101.085938 C 113.769531 101.035156 114.394531 100.832031 114.941406 100.503906 L 131.777344 90.019531 C 132.613281 89.5 133.1875 88.683594 133.390625 87.71875 C 133.597656 86.757812 133.40625 85.78125 132.851562 84.964844 C 131.960938 83.648438 130.203125 83.1875 128.9375 83.933594 L 114.226562 92.8125 C 113.847656 93.042969 113.402344 93.148438 112.960938 93.113281 L 91.148438 91.488281 C 91.121094 91.488281 91.09375 91.484375 91.066406 91.480469 L 76.707031 89.851562 C 76.644531 89.84375 76.582031 89.835938 76.523438 89.820312 C 74.285156 89.371094 72.003906 89.804688 70.097656 91.050781 C 69.84375 91.21875 69.566406 91.324219 69.28125 91.371094 L 44.765625 105.46875 C 44.101562 105.851562 43.550781 106.40625 43.179688 107.078125 L 33.015625 125.378906 C 32.03125 127.148438 32.65625 129.417969 34.410156 130.4375 L 34.542969 130.515625 C 35.476562 131.058594 36.558594 131.199219 37.589844 130.910156 C 38.609375 130.625 39.449219 129.953125 39.953125 129.023438 C 43.667969 122.15625 49.703125 111.136719 49.761719 111.027344 C 49.984375 110.625 50.324219 110.304688 50.738281 110.113281 L 68.363281 101.945312 C 69.4375 101.449219 70.710938 101.910156 71.210938 102.980469 C 71.707031 104.050781 71.242188 105.320312 70.167969 105.820312 L 63.898438 108.726562 L 57.800781 138.707031 L 51.449219 177.609375 C 51.378906 178.03125 51.1875 178.421875 50.890625 178.730469 L 30.226562 200.53125 C 27.679688 203.214844 27.738281 207.367188 30.355469 209.984375 C 31.660156 211.28125 33.394531 211.960938 35.234375 211.96875 C 37.078125 211.949219 38.792969 211.207031 40.070312 209.878906 L 64.753906 184.175781 C 65.269531 183.640625 65.644531 182.976562 65.835938 182.261719 L 75.789062 146.015625 C 76.097656 144.898438 77.238281 144.230469 78.367188 144.503906 C 79.496094 144.78125 80.195312 145.90625 79.949219 147.035156 Z M 93.609375 222.996094 C 87.742188 222.996094 82.972656 218.234375 82.972656 212.386719 L 82.972656 179.707031 L 75.691406 162.550781 L 69.96875 183.378906 C 69.59375 184.777344 68.859375 186.078125 67.847656 187.132812 L 43.160156 212.835938 C 41.082031 215 38.285156 216.207031 35.28125 216.242188 C 32.292969 216.246094 29.453125 215.125 27.328125 213.003906 C 23.054688 208.742188 22.960938 201.972656 27.113281 197.59375 L 47.328125 176.273438 L 53.582031 137.976562 C 53.585938 137.949219 53.589844 137.925781 53.59375 137.898438 L 59.074219 110.960938 L 53.183594 113.691406 C 51.855469 116.117188 46.925781 125.128906 43.722656 131.050781 C 42.660156 133.011719 40.894531 134.421875 38.75 135.023438 C 36.589844 135.628906 34.328125 135.339844 32.382812 134.207031 L 32.25 134.128906 C 28.503906 131.945312 27.167969 127.09375 29.269531 123.308594 L 39.433594 105.007812 C 40.183594 103.65625 41.285156 102.535156 42.628906 101.765625 L 69.085938 86.550781 C 69.402344 86.371094 69.746094 86.28125 70.085938 86.269531 C 72.351562 85.371094 74.832031 85.136719 77.277344 85.613281 L 91.507812 87.230469 L 112.597656 88.800781 L 126.6875 80.296875 C 126.695312 80.292969 126.753906 80.257812 126.757812 80.253906 C 129.992188 78.351562 134.226562 79.367188 136.398438 82.570312 C 137.609375 84.355469 138.03125 86.5 137.582031 88.605469 C 137.132812 90.714844 135.878906 92.503906 134.046875 93.644531 L 117.179688 104.144531 C 116.011719 104.847656 114.703125 105.261719 113.371094 105.351562 C 113.332031 105.355469 113.292969 105.355469 113.253906 105.359375 L 96.5 105.582031 L 91.640625 140.359375 L 103.652344 171.230469 C 104.042969 172.238281 104.242188 173.296875 104.242188 174.375 L 104.242188 212.386719 C 104.242188 218.234375 99.472656 222.996094 93.609375 222.996094 " fill-opacity="1" fill-rule="nonzero"></path></g><path fill="#b9ea8f" d="M 134.109375 128.40625 C 132.109375 125.425781 132.269531 121.347656 134.804688 118.804688 C 138.261719 115.335938 143.796875 116.023438 146.378906 119.871094 L 155.433594 133.378906 L 160.597656 133.363281 C 165.695312 133.351562 169.839844 137.449219 169.867188 142.53125 C 169.929688 154.949219 170.042969 175.574219 170.0625 175.863281 L 175.183594 213.257812 C 175.46875 217.046875 172.613281 220.351562 168.8125 220.632812 C 168.660156 220.644531 168.507812 220.652344 168.359375 220.652344 C 164.746094 220.6875 161.679688 217.925781 161.40625 214.285156 L 157.996094 185.441406 C 157.980469 185.035156 157.371094 185.042969 157.363281 185.449219 L 154.742188 214.238281 C 154.601562 217.921875 151.578125 220.820312 147.917969 220.859375 C 147.804688 220.859375 147.691406 220.855469 147.578125 220.851562 C 143.765625 220.707031 140.792969 217.511719 140.9375 213.714844 L 144.578125 176.613281 C 144.585938 176.414062 144.386719 156.253906 144.261719 143.546875 L 134.109375 128.40625 " fill-opacity="1" fill-rule="nonzero"></path><g clip-path="url(#d42f5fb4d2)"><path fill="#ffffff" d="M 159.503906 185.484375 C 159.503906 185.484375 159.503906 185.484375 159.503906 185.488281 C 159.503906 185.484375 159.503906 185.484375 159.503906 185.484375 Z M 159.503906 185.488281 Z M 155.859375 185.535156 C 155.859375 185.539062 155.859375 185.539062 155.859375 185.539062 C 155.859375 185.539062 155.859375 185.539062 155.859375 185.535156 Z M 143.074219 213.851562 C 143.042969 215.097656 143.492188 216.285156 144.34375 217.199219 C 145.207031 218.132812 146.386719 218.667969 147.65625 218.71875 C 147.722656 218.71875 147.808594 218.722656 147.890625 218.722656 C 150.4375 218.695312 152.507812 216.691406 152.605469 214.15625 C 152.605469 214.121094 152.609375 214.082031 152.609375 214.046875 L 155.226562 185.304688 C 155.304688 184.023438 156.34375 183.023438 157.644531 183.003906 C 158.9375 182.984375 160.015625 183.957031 160.128906 185.238281 L 163.535156 214.035156 C 163.535156 214.0625 163.539062 214.09375 163.542969 214.125 C 163.726562 216.597656 165.808594 218.515625 168.289062 218.515625 C 168.304688 218.515625 168.320312 218.515625 168.335938 218.515625 C 168.441406 218.515625 168.546875 218.511719 168.652344 218.503906 C 169.921875 218.410156 171.078125 217.828125 171.910156 216.867188 C 172.726562 215.921875 173.128906 214.71875 173.054688 213.476562 L 167.941406 176.152344 C 167.9375 176.109375 167.933594 176.066406 167.929688 176.023438 C 167.917969 175.878906 167.898438 175.609375 167.722656 142.542969 C 167.703125 138.65625 164.519531 135.5 160.625 135.5 C 160.617188 135.5 160.613281 135.5 160.605469 135.5 L 155.441406 135.515625 C 155.4375 135.515625 155.4375 135.515625 155.433594 135.515625 C 154.71875 135.515625 154.050781 135.160156 153.652344 134.566406 L 144.597656 121.058594 C 143.703125 119.726562 142.269531 118.871094 140.667969 118.71875 C 139.050781 118.5625 137.503906 119.125 136.324219 120.3125 C 134.570312 122.074219 134.386719 124.976562 135.886719 127.21875 L 146.039062 142.359375 C 146.273438 142.707031 146.398438 143.109375 146.402344 143.527344 C 146.726562 176.421875 146.722656 176.585938 146.71875 176.695312 C 146.714844 176.738281 146.710938 176.777344 146.707031 176.820312 Z M 147.84375 222.996094 C 147.734375 222.996094 147.625 222.992188 147.515625 222.988281 C 145.078125 222.894531 142.84375 221.871094 141.203125 220.105469 C 139.558594 218.339844 138.707031 216.039062 138.796875 213.632812 C 138.800781 213.589844 138.800781 213.546875 138.804688 213.503906 L 142.4375 176.492188 C 142.433594 175.914062 142.378906 169.625 142.125 144.207031 L 132.328125 129.59375 C 129.695312 125.667969 130.097656 120.496094 133.285156 117.296875 C 135.359375 115.21875 138.199219 114.183594 141.082031 114.464844 C 143.96875 114.742188 146.546875 116.28125 148.15625 118.683594 L 156.574219 131.238281 L 160.59375 131.230469 C 160.605469 131.230469 160.613281 131.230469 160.625 131.230469 C 166.871094 131.230469 171.972656 136.289062 172.007812 142.523438 C 172.109375 162.144531 172.183594 174.425781 172.203125 175.691406 L 177.304688 212.96875 C 177.3125 213.011719 177.316406 213.054688 177.320312 213.097656 C 177.5 215.5 176.730469 217.828125 175.152344 219.65625 C 173.578125 221.480469 171.382812 222.585938 168.972656 222.765625 C 168.773438 222.777344 168.574219 222.789062 168.378906 222.789062 C 168.347656 222.789062 168.316406 222.789062 168.285156 222.789062 C 163.589844 222.789062 159.652344 219.167969 159.273438 214.492188 L 157.917969 203 L 156.878906 214.378906 C 156.667969 219.167969 152.75 222.945312 147.9375 222.992188 C 147.90625 222.996094 147.875 222.996094 147.84375 222.996094 " fill-opacity="1" fill-rule="nonzero"></path></g><path fill="#6fbbf4" d="M 154.140625 131.53125 C 161.140625 132.949219 167.96875 128.445312 169.390625 121.472656 C 170.816406 114.5 166.292969 107.699219 159.296875 106.28125 C 152.296875 104.867188 145.46875 109.367188 144.042969 116.339844 C 142.621094 123.3125 147.144531 130.117188 154.140625 131.53125 " fill-opacity="1" fill-rule="nonzero"></path><path fill="#ffffff" d="M 156.714844 108.160156 C 151.691406 108.160156 147.179688 111.679688 146.144531 116.769531 C 145.570312 119.578125 146.128906 122.445312 147.71875 124.839844 C 149.3125 127.234375 151.742188 128.867188 154.566406 129.441406 C 160.402344 130.625 166.109375 126.855469 167.292969 121.046875 C 167.867188 118.234375 167.308594 115.371094 165.71875 112.976562 C 164.125 110.582031 161.695312 108.949219 158.867188 108.375 C 158.148438 108.230469 157.425781 108.160156 156.714844 108.160156 Z M 156.722656 133.929688 C 155.730469 133.929688 154.726562 133.832031 153.714844 133.625 C 149.769531 132.828125 146.375 130.546875 144.152344 127.199219 C 141.925781 123.855469 141.144531 119.847656 141.945312 115.914062 C 143.601562 107.800781 151.574219 102.539062 159.722656 104.1875 C 163.664062 104.988281 167.0625 107.269531 169.285156 110.617188 C 171.511719 113.960938 172.292969 117.96875 171.488281 121.898438 C 170.039062 129.011719 163.738281 133.929688 156.722656 133.929688 " fill-opacity="1" fill-rule="nonzero"></path><path fill="#b9ea8f" d="M 142.515625 100.464844 C 144.789062 97.691406 148.742188 96.652344 151.921875 98.332031 C 156.257812 100.617188 157.210938 106.101562 154.273438 109.6875 L 142.40625 124.171875 C 140.023438 127.078125 135.851562 127.765625 132.660156 125.78125 C 128.835938 123.402344 127.972656 118.210938 130.828125 114.730469 L 142.515625 100.464844 " fill-opacity="1" fill-rule="nonzero"></path><path fill="#ffffff" d="M 142.511719 100.46875 L 142.519531 100.46875 Z M 148.605469 99.65625 C 146.976562 99.65625 145.320312 100.417969 144.171875 101.820312 L 132.484375 116.082031 C 131.515625 117.265625 131.101562 118.8125 131.351562 120.320312 C 131.601562 121.832031 132.492188 123.160156 133.792969 123.96875 C 136.0625 125.378906 139.054688 124.886719 140.746094 122.820312 L 152.617188 108.335938 C 153.636719 107.089844 154.039062 105.476562 153.71875 103.902344 C 153.394531 102.308594 152.402344 101 150.921875 100.21875 C 150.199219 99.839844 149.40625 99.65625 148.605469 99.65625 Z M 136.601562 129.042969 C 134.855469 129.042969 133.097656 128.570312 131.527344 127.597656 C 129.183594 126.136719 127.578125 123.738281 127.125 121.019531 C 126.675781 118.296875 127.417969 115.515625 129.167969 113.378906 L 140.855469 99.117188 C 143.851562 95.457031 148.925781 94.332031 152.921875 96.441406 C 155.523438 97.8125 157.34375 100.222656 157.917969 103.054688 C 158.492188 105.890625 157.769531 108.800781 155.933594 111.039062 L 144.0625 125.523438 C 142.179688 127.820312 139.410156 129.042969 136.601562 129.042969 " fill-opacity="1" fill-rule="nonzero"></path><path fill="#b9ea8f" d="M 159.914062 124.667969 C 163.644531 123.382812 167.722656 125.445312 169.335938 129.035156 L 177.105469 146.339844 C 178.59375 149.652344 177.421875 153.554688 174.351562 155.507812 C 170.605469 157.886719 165.621094 156.433594 163.746094 152.417969 L 155.523438 134.773438 C 153.742188 130.808594 155.710938 126.121094 159.914062 124.667969 " fill-opacity="1" fill-rule="nonzero"></path><path fill="#ffffff" d="M 159.914062 124.667969 L 159.921875 124.667969 Z M 162.214844 126.421875 C 161.679688 126.421875 161.140625 126.507812 160.617188 126.6875 C 159.171875 127.1875 158.050781 128.222656 157.449219 129.605469 C 156.855469 130.972656 156.867188 132.539062 157.476562 133.898438 L 165.691406 151.519531 C 166.320312 152.875 167.507812 153.890625 168.949219 154.3125 C 170.386719 154.730469 171.933594 154.507812 173.199219 153.707031 C 175.355469 152.332031 176.195312 149.542969 175.152344 147.210938 L 167.382812 129.910156 C 166.417969 127.757812 164.332031 126.421875 162.214844 126.421875 Z M 170.40625 158.789062 C 169.515625 158.789062 168.617188 158.667969 167.746094 158.414062 C 165.125 157.648438 162.957031 155.792969 161.804688 153.320312 L 153.582031 135.671875 C 152.46875 133.195312 152.449219 130.375 153.519531 127.910156 C 154.585938 125.449219 156.660156 123.53125 159.214844 122.652344 C 163.875 121.042969 169.179688 123.460938 171.292969 128.164062 L 179.058594 145.464844 C 180.964844 149.714844 179.4375 154.808594 175.5 157.308594 C 173.960938 158.289062 172.191406 158.789062 170.40625 158.789062 " fill-opacity="1" fill-rule="nonzero"></path></svg>