<svg xmlns="http://www.w3.org/2000/svg" xmlns:xlink="http://www.w3.org/1999/xlink" width="85" viewBox="0 0 63.75 63.749998" height="85" preserveAspectRatio="xMidYMid meet"><defs><clipPath id="519c924123"><path d="M 3.824219 3.824219 L 60.074219 3.824219 L 60.074219 60.074219 L 3.824219 60.074219 Z M 3.824219 3.824219 " clip-rule="nonzero"></path></clipPath></defs><g clip-path="url(#519c924123)"><path fill="#6fbbf4" d="M 31.949219 3.824219 C 16.417969 3.824219 3.824219 16.417969 3.824219 31.949219 C 3.824219 47.480469 16.417969 60.074219 31.949219 60.074219 C 47.480469 60.074219 60.074219 47.480469 60.074219 31.949219 C 60.074219 16.417969 47.480469 3.824219 31.949219 3.824219 Z M 31.949219 3.824219 " fill-opacity="1" fill-rule="nonzero"></path></g><path fill="#ffffff" d="M 40.078125 40.734375 C 39.625 40.382812 38.96875 40.203125 38.105469 40.203125 L 29.433594 40.203125 C 29.707031 39.785156 29.976562 39.421875 30.25 39.125 C 30.875 38.378906 32.019531 37.3125 33.671875 35.953125 C 35.339844 34.589844 36.53125 33.59375 37.234375 32.957031 C 37.933594 32.324219 38.636719 31.441406 39.320312 30.316406 C 40 29.195312 40.339844 27.949219 40.339844 26.578125 C 40.339844 25.703125 40.179688 24.855469 39.851562 24.046875 C 39.523438 23.234375 39.070312 22.519531 38.480469 21.894531 C 37.890625 21.269531 37.210938 20.785156 36.4375 20.433594 C 35.25 19.898438 33.796875 19.640625 32.109375 19.640625 C 30.703125 19.640625 29.480469 19.84375 28.4375 20.261719 C 27.394531 20.683594 26.53125 21.226562 25.839844 21.894531 C 25.160156 22.574219 24.648438 23.324219 24.308594 24.152344 C 23.96875 24.976562 23.800781 25.78125 23.800781 26.542969 C 23.800781 27.175781 23.980469 27.675781 24.34375 28.039062 C 24.707031 28.402344 25.171875 28.582031 25.726562 28.582031 C 26.359375 28.582031 26.835938 28.378906 27.167969 27.980469 C 27.496094 27.585938 27.789062 27.019531 28.050781 26.269531 C 28.3125 25.535156 28.492188 25.082031 28.605469 24.910156 C 29.433594 23.640625 30.578125 23.003906 32.03125 23.003906 C 32.722656 23.003906 33.34375 23.164062 33.933594 23.46875 C 34.511719 23.777344 34.976562 24.21875 35.316406 24.773438 C 35.65625 25.328125 35.828125 25.964844 35.828125 26.679688 C 35.828125 27.335938 35.667969 27.992188 35.351562 28.683594 C 35.035156 29.375 34.578125 30.035156 33.96875 30.679688 C 33.367188 31.328125 32.609375 31.972656 31.699219 32.617188 C 31.191406 32.957031 30.339844 33.683594 29.160156 34.773438 C 27.972656 35.859375 26.644531 37.175781 25.171875 38.695312 C 24.820312 39.070312 24.492188 39.589844 24.195312 40.25 C 23.902344 40.90625 23.742188 41.4375 23.742188 41.835938 C 23.742188 42.457031 23.980469 42.992188 24.445312 43.457031 C 24.910156 43.921875 25.554688 44.148438 26.382812 44.148438 L 38.605469 44.148438 C 39.328125 44.148438 39.886719 43.953125 40.238281 43.582031 C 40.597656 43.207031 40.78125 42.742188 40.78125 42.199219 C 40.757812 41.574219 40.53125 41.085938 40.078125 40.734375 " fill-opacity="1" fill-rule="nonzero"></path></svg>