<svg xmlns="http://www.w3.org/2000/svg" xmlns:xlink="http://www.w3.org/1999/xlink" width="85" viewBox="0 0 63.75 63.749998" height="85" preserveAspectRatio="xMidYMid meet"><defs><clipPath id="62ac91255f"><path d="M 3.824219 3.824219 L 60.074219 3.824219 L 60.074219 60.074219 L 3.824219 60.074219 Z M 3.824219 3.824219 " clip-rule="nonzero"></path></clipPath></defs><g clip-path="url(#62ac91255f)"><path fill="#6fbbf4" d="M 31.949219 3.824219 C 16.417969 3.824219 3.824219 16.417969 3.824219 31.949219 C 3.824219 47.480469 16.417969 60.074219 31.949219 60.074219 C 47.480469 60.074219 60.074219 47.480469 60.074219 31.949219 C 60.074219 16.417969 47.480469 3.824219 31.949219 3.824219 Z M 31.949219 3.824219 " fill-opacity="1" fill-rule="nonzero"></path></g><path fill="#ffffff" d="M 40.066406 34.398438 C 39.773438 33.671875 39.320312 33.015625 38.730469 32.414062 C 38.140625 31.8125 37.414062 31.28125 36.542969 30.816406 C 37.4375 30.066406 38.128906 29.285156 38.605469 28.503906 C 39.082031 27.710938 39.328125 26.757812 39.328125 25.660156 C 39.328125 24.820312 39.160156 24.027344 38.832031 23.300781 C 38.503906 22.574219 38.003906 21.929688 37.355469 21.375 C 36.699219 20.816406 35.941406 20.398438 35.042969 20.105469 C 34.160156 19.808594 33.175781 19.660156 32.109375 19.660156 C 30.882812 19.660156 29.761719 19.832031 28.777344 20.183594 C 27.789062 20.535156 26.949219 21 26.28125 21.566406 C 25.613281 22.144531 25.101562 22.746094 24.75 23.378906 C 24.398438 24.015625 24.230469 24.625 24.230469 25.195312 C 24.230469 25.792969 24.410156 26.269531 24.785156 26.632812 C 25.160156 26.996094 25.566406 27.175781 26.011719 27.175781 C 26.382812 27.175781 26.710938 27.109375 27.007812 26.972656 C 27.289062 26.835938 27.496094 26.65625 27.609375 26.429688 C 27.800781 26 28.003906 25.535156 28.230469 25.046875 C 28.457031 24.558594 28.695312 24.160156 28.957031 23.855469 C 29.207031 23.550781 29.558594 23.300781 30 23.109375 C 30.441406 22.914062 30.996094 22.824219 31.667969 22.824219 C 32.664062 22.824219 33.457031 23.128906 34.035156 23.742188 C 34.625 24.355469 34.921875 25.089844 34.921875 25.941406 C 34.921875 27.0625 34.558594 27.914062 33.820312 28.515625 C 33.082031 29.117188 32.210938 29.410156 31.191406 29.410156 L 30.511719 29.410156 C 29.726562 29.410156 29.128906 29.570312 28.730469 29.898438 C 28.332031 30.226562 28.128906 30.65625 28.128906 31.191406 C 28.128906 31.734375 28.300781 32.152344 28.628906 32.460938 C 28.957031 32.765625 29.433594 32.914062 30.046875 32.914062 C 30.179688 32.914062 30.476562 32.890625 30.941406 32.84375 C 31.40625 32.800781 31.746094 32.777344 31.972656 32.777344 C 33.230469 32.777344 34.21875 33.140625 34.929688 33.878906 C 35.632812 34.613281 35.996094 35.632812 35.996094 36.925781 C 35.996094 37.800781 35.792969 38.570312 35.375 39.238281 C 34.953125 39.90625 34.433594 40.40625 33.796875 40.746094 C 33.164062 41.085938 32.492188 41.257812 31.8125 41.257812 C 30.625 41.257812 29.695312 40.882812 29.035156 40.132812 C 28.378906 39.386719 27.753906 38.242188 27.1875 36.710938 C 27.097656 36.460938 26.917969 36.234375 26.621094 36.054688 C 26.339844 35.871094 26.03125 35.78125 25.726562 35.78125 C 25.101562 35.78125 24.59375 35.972656 24.171875 36.371094 C 23.753906 36.769531 23.550781 37.277344 23.550781 37.925781 C 23.550781 38.421875 23.71875 39.058594 24.070312 39.816406 C 24.421875 40.578125 24.933594 41.324219 25.613281 42.039062 C 26.292969 42.753906 27.15625 43.34375 28.210938 43.820312 C 29.261719 44.296875 30.453125 44.53125 31.78125 44.53125 C 33.082031 44.53125 34.273438 44.328125 35.363281 43.910156 C 36.449219 43.488281 37.367188 42.921875 38.164062 42.1875 C 38.945312 41.449219 39.546875 40.609375 39.941406 39.667969 C 40.351562 38.730469 40.542969 37.753906 40.542969 36.746094 C 40.507812 35.90625 40.363281 35.125 40.066406 34.398438 " fill-opacity="1" fill-rule="nonzero"></path></svg>