<svg xmlns="http://www.w3.org/2000/svg" xmlns:xlink="http://www.w3.org/1999/xlink" width="85" viewBox="0 0 63.75 63.749998" height="85" preserveAspectRatio="xMidYMid meet"><defs><clipPath id="b03feaa4fa"><path d="M 3.789062 3.789062 L 60.039062 3.789062 L 60.039062 60.039062 L 3.789062 60.039062 Z M 3.789062 3.789062 " clip-rule="nonzero"></path></clipPath></defs><g clip-path="url(#b03feaa4fa)"><path fill="#6fbbf4" d="M 31.914062 3.789062 C 16.382812 3.789062 3.789062 16.382812 3.789062 31.914062 C 3.789062 47.441406 16.382812 60.039062 31.914062 60.039062 C 47.441406 60.039062 60.039062 47.441406 60.039062 31.914062 C 60.039062 16.382812 47.441406 3.789062 31.914062 3.789062 Z M 31.914062 3.789062 " fill-opacity="1" fill-rule="nonzero"></path></g><path fill="#ffffff" d="M 40.628906 35.515625 C 40.121094 35.28125 39.429688 35.164062 38.578125 35.164062 L 37.863281 35.164062 L 37.863281 22.320312 C 37.863281 20.394531 37.023438 19.429688 35.335938 19.429688 C 34.816406 19.429688 34.371094 19.601562 34 19.953125 C 33.625 20.304688 33.160156 20.859375 32.582031 21.640625 L 23.785156 33.421875 C 23.546875 33.738281 23.332031 34.007812 23.171875 34.238281 C 23.003906 34.464844 22.84375 34.691406 22.695312 34.929688 C 22.539062 35.164062 22.425781 35.394531 22.34375 35.609375 C 22.265625 35.824219 22.230469 36.039062 22.230469 36.242188 C 22.230469 37.058594 22.492188 37.707031 23.023438 38.179688 C 23.546875 38.65625 24.339844 38.894531 25.394531 38.894531 L 33.726562 38.894531 L 33.726562 41.980469 C 33.726562 42.804688 33.917969 43.441406 34.304688 43.859375 C 34.691406 44.28125 35.1875 44.496094 35.8125 44.496094 C 36.445312 44.496094 36.945312 44.292969 37.320312 43.871094 C 37.695312 43.453125 37.886719 42.816406 37.886719 41.96875 L 37.886719 38.882812 L 38.894531 38.882812 C 39.734375 38.882812 40.371094 38.738281 40.789062 38.441406 C 41.207031 38.148438 41.421875 37.683594 41.421875 37.035156 C 41.402344 36.265625 41.140625 35.753906 40.628906 35.515625 M 33.714844 35.164062 L 26.574219 35.164062 L 33.714844 25.519531 Z M 33.714844 35.164062 " fill-opacity="1" fill-rule="nonzero"></path></svg>