<svg xmlns="http://www.w3.org/2000/svg" xmlns:xlink="http://www.w3.org/1999/xlink" width="85" viewBox="0 0 63.75 63.749998" height="85" preserveAspectRatio="xMidYMid meet"><defs><clipPath id="6e3c34a336"><path d="M 3.789062 3.789062 L 60.039062 3.789062 L 60.039062 60.039062 L 3.789062 60.039062 Z M 3.789062 3.789062 " clip-rule="nonzero"></path></clipPath><clipPath id="73af420d54"><path d="M 3.789062 3.789062 L 60.039062 3.789062 L 60.039062 60.039062 L 3.789062 60.039062 Z M 3.789062 3.789062 " clip-rule="nonzero"></path></clipPath></defs><g clip-path="url(#6e3c34a336)"><path fill="#6fbbf4" d="M 31.914062 3.789062 C 16.382812 3.789062 3.789062 16.382812 3.789062 31.914062 C 3.789062 47.441406 16.382812 60.039062 31.914062 60.039062 C 47.441406 60.039062 60.039062 47.441406 60.039062 31.914062 C 60.039062 16.382812 47.441406 3.789062 31.914062 3.789062 Z M 31.914062 3.789062 " fill-opacity="1" fill-rule="nonzero"></path></g><path fill="#ffffff" d="M 40.628906 35.515625 C 40.121094 35.28125 39.429688 35.164062 38.578125 35.164062 L 37.863281 35.164062 L 37.863281 22.320312 C 37.863281 20.394531 37.023438 19.429688 35.335938 19.429688 C 34.816406 19.429688 34.371094 19.601562 34 19.953125 C 33.625 20.304688 33.160156 20.859375 32.582031 21.640625 L 23.785156 33.421875 C 23.546875 33.738281 23.332031 34.007812 23.171875 34.238281 C 23.003906 34.464844 22.84375 34.691406 22.695312 34.929688 C 22.539062 35.164062 22.425781 35.394531 22.34375 35.609375 C 22.265625 35.824219 22.230469 36.039062 22.230469 36.242188 C 22.230469 37.058594 22.492188 37.707031 23.023438 38.179688 C 23.546875 38.65625 24.339844 38.894531 25.394531 38.894531 L 33.726562 38.894531 L 33.726562 41.980469 C 33.726562 42.804688 33.917969 43.441406 34.304688 43.859375 C 34.691406 44.28125 35.1875 44.496094 35.8125 44.496094 C 36.445312 44.496094 36.945312 44.292969 37.320312 43.871094 C 37.695312 43.453125 37.886719 42.816406 37.886719 41.96875 L 37.886719 38.882812 L 38.894531 38.882812 C 39.734375 38.882812 40.371094 38.738281 40.789062 38.441406 C 41.207031 38.148438 41.421875 37.683594 41.421875 37.035156 C 41.402344 36.265625 41.140625 35.753906 40.628906 35.515625 M 33.714844 35.164062 L 26.574219 35.164062 L 33.714844 25.519531 Z M 33.714844 35.164062 " fill-opacity="1" fill-rule="nonzero"></path><g clip-path="url(#73af420d54)"><path fill="#6fbbf4" d="M 31.914062 3.789062 C 16.382812 3.789062 3.789062 16.382812 3.789062 31.914062 C 3.789062 47.441406 16.382812 60.039062 31.914062 60.039062 C 47.441406 60.039062 60.039062 47.441406 60.039062 31.914062 C 60.039062 16.382812 47.441406 3.789062 31.914062 3.789062 Z M 31.914062 3.789062 " fill-opacity="1" fill-rule="nonzero"></path></g><path fill="#ffffff" d="M 40.121094 32.71875 C 39.722656 31.753906 39.179688 30.925781 38.476562 30.222656 C 37.773438 29.519531 36.96875 28.964844 36.039062 28.566406 C 35.109375 28.171875 34.125 27.96875 33.058594 27.96875 C 31.730469 27.96875 30.28125 28.386719 28.703125 29.226562 L 29.644531 23.839844 L 37.535156 23.839844 C 38.351562 23.839844 38.976562 23.660156 39.394531 23.308594 C 39.8125 22.957031 40.027344 22.492188 40.027344 21.914062 C 40.027344 20.597656 39.167969 19.941406 37.433594 19.941406 L 28.671875 19.941406 C 27.71875 19.941406 27.027344 20.15625 26.605469 20.585938 C 26.1875 21.019531 25.894531 21.710938 25.746094 22.664062 L 24.351562 30.621094 C 24.226562 31.324219 24.167969 31.695312 24.167969 31.753906 C 24.167969 32.253906 24.386719 32.695312 24.804688 33.089844 C 25.222656 33.488281 25.710938 33.679688 26.246094 33.679688 C 26.742188 33.679688 27.378906 33.386719 28.148438 32.808594 C 28.917969 32.230469 29.507812 31.820312 29.917969 31.582031 C 30.324219 31.34375 31.003906 31.230469 31.957031 31.230469 C 32.730469 31.230469 33.429688 31.414062 34.066406 31.789062 C 34.703125 32.160156 35.199219 32.71875 35.574219 33.476562 C 35.949219 34.226562 36.140625 35.132812 36.140625 36.199219 C 36.140625 37.183594 35.972656 38.066406 35.621094 38.839844 C 35.269531 39.609375 34.78125 40.222656 34.132812 40.664062 C 33.488281 41.105469 32.738281 41.332031 31.890625 41.332031 C 30.960938 41.332031 30.121094 41.0625 29.363281 40.503906 C 28.613281 39.960938 28.011719 39.191406 27.570312 38.203125 C 27.117188 37.128906 26.425781 36.59375 25.496094 36.59375 C 24.953125 36.59375 24.5 36.785156 24.148438 37.171875 C 23.785156 37.558594 23.601562 37.964844 23.601562 38.398438 C 23.601562 39.109375 23.863281 39.925781 24.375 40.878906 C 24.882812 41.832031 25.769531 42.660156 26.992188 43.394531 C 28.226562 44.121094 29.839844 44.496094 31.820312 44.496094 C 33.589844 44.496094 35.15625 44.109375 36.515625 43.328125 C 37.875 42.558594 38.90625 41.503906 39.632812 40.1875 C 40.347656 38.871094 40.710938 37.410156 40.710938 35.800781 C 40.71875 34.710938 40.527344 33.679688 40.121094 32.71875 " fill-opacity="1" fill-rule="nonzero"></path></svg>