<svg xmlns="http://www.w3.org/2000/svg" xmlns:xlink="http://www.w3.org/1999/xlink" width="85" viewBox="0 0 63.75 63.749998" height="85" preserveAspectRatio="xMidYMid meet"><defs><clipPath id="26245d8a81"><path d="M 0 0 L 63.5 0 L 63.5 63.5 L 0 63.5 Z M 0 0 " clip-rule="nonzero"></path></clipPath><clipPath id="5483ba72e7"><path d="M 3.789062 3.789062 L 60.039062 3.789062 L 60.039062 60.039062 L 3.789062 60.039062 Z M 3.789062 3.789062 " clip-rule="nonzero"></path></clipPath></defs><g clip-path="url(#26245d8a81)"><path fill="#ffffff" d="M 0 0 L 63.75 0 L 63.75 348.75 L 0 348.75 Z M 0 0 " fill-opacity="1" fill-rule="nonzero"></path><path fill="#ffffff" d="M 0 0 L 63.75 0 L 63.75 63.75 L 0 63.75 Z M 0 0 " fill-opacity="1" fill-rule="nonzero"></path><path fill="#ffffff" d="M 0 0 L 63.75 0 L 63.75 63.75 L 0 63.75 Z M 0 0 " fill-opacity="1" fill-rule="nonzero"></path></g><g clip-path="url(#5483ba72e7)"><path fill="#6fbbf4" d="M 31.914062 3.789062 C 16.382812 3.789062 3.789062 16.382812 3.789062 31.914062 C 3.789062 47.441406 16.382812 60.039062 31.914062 60.039062 C 47.441406 60.039062 60.039062 47.441406 60.039062 31.914062 C 60.039062 16.382812 47.441406 3.789062 31.914062 3.789062 Z M 31.914062 3.789062 " fill-opacity="1" fill-rule="nonzero"></path></g><path fill="#ffffff" d="M 40.210938 33.113281 C 39.847656 32.128906 39.328125 31.277344 38.65625 30.550781 C 37.988281 29.828125 37.207031 29.269531 36.3125 28.875 C 35.414062 28.476562 34.453125 28.285156 33.398438 28.285156 C 32.296875 28.285156 31.3125 28.5 30.425781 28.929688 C 29.542969 29.363281 28.726562 30.03125 27.96875 30.925781 C 28.113281 27.910156 28.589844 25.824219 29.394531 24.644531 C 29.792969 24.066406 30.28125 23.613281 30.871094 23.273438 C 31.449219 22.933594 32.039062 22.765625 32.625 22.765625 C 33.351562 22.765625 34 22.96875 34.554688 23.363281 C 35.109375 23.773438 35.507812 24.304688 35.765625 24.964844 C 35.960938 25.484375 36.242188 25.894531 36.652344 26.1875 C 37.046875 26.484375 37.480469 26.628906 37.941406 26.628906 C 38.476562 26.628906 38.90625 26.449219 39.257812 26.074219 C 39.597656 25.699219 39.769531 25.292969 39.769531 24.839844 C 39.769531 24.089844 39.496094 23.296875 38.941406 22.480469 C 38.398438 21.664062 37.582031 20.972656 36.503906 20.417969 C 35.425781 19.863281 34.179688 19.589844 32.761719 19.589844 C 31.289062 19.589844 29.972656 19.863281 28.828125 20.417969 C 27.671875 20.972656 26.699219 21.789062 25.894531 22.878906 C 25.089844 23.964844 24.464844 25.328125 24.035156 26.980469 C 23.601562 28.636719 23.386719 30.507812 23.386719 32.59375 C 23.386719 35.164062 23.738281 37.332031 24.453125 39.109375 C 25.167969 40.890625 26.199219 42.226562 27.546875 43.136719 C 28.898438 44.042969 30.507812 44.496094 32.367188 44.496094 C 33.988281 44.496094 35.425781 44.144531 36.707031 43.429688 C 37.988281 42.714844 38.984375 41.71875 39.699219 40.449219 C 40.414062 39.179688 40.765625 37.761719 40.765625 36.199219 C 40.753906 35.121094 40.574219 34.101562 40.210938 33.113281 M 35.222656 39.859375 C 34.496094 40.777344 33.566406 41.230469 32.445312 41.230469 C 31.265625 41.230469 30.304688 40.730469 29.519531 39.734375 C 28.75 38.738281 28.351562 37.488281 28.351562 35.992188 C 28.351562 35.0625 28.546875 34.246094 28.929688 33.554688 C 29.316406 32.863281 29.816406 32.332031 30.4375 31.96875 C 31.0625 31.605469 31.71875 31.425781 32.410156 31.425781 C 33.125 31.425781 33.792969 31.617188 34.382812 32.003906 C 34.972656 32.386719 35.449219 32.945312 35.800781 33.660156 C 36.140625 34.382812 36.3125 35.246094 36.3125 36.253906 C 36.320312 37.75 35.960938 38.953125 35.222656 39.859375 " fill-opacity="1" fill-rule="nonzero"></path></svg>