<svg xmlns="http://www.w3.org/2000/svg" xmlns:xlink="http://www.w3.org/1999/xlink" width="85" viewBox="0 0 63.75 63.749998" height="85" preserveAspectRatio="xMidYMid meet"><defs><clipPath id="5881cb121c"><path d="M 0 0 L 63.5 0 L 63.5 63.5 L 0 63.5 Z M 0 0 " clip-rule="nonzero"></path></clipPath><clipPath id="793a3dbebf"><path d="M 3.789062 3.789062 L 60.039062 3.789062 L 60.039062 60.039062 L 3.789062 60.039062 Z M 3.789062 3.789062 " clip-rule="nonzero"></path></clipPath></defs><g clip-path="url(#5881cb121c)"><path fill="#ffffff" d="M 0 0 L 63.75 0 L 63.75 63.75 L 0 63.75 Z M 0 0 " fill-opacity="1" fill-rule="nonzero"></path><path fill="#ffffff" d="M 0 0 L 63.75 0 L 63.75 63.75 L 0 63.75 Z M 0 0 " fill-opacity="1" fill-rule="nonzero"></path></g><g clip-path="url(#793a3dbebf)"><path fill="#6fbbf4" d="M 31.914062 3.789062 C 16.382812 3.789062 3.789062 16.382812 3.789062 31.914062 C 3.789062 47.441406 16.382812 60.039062 31.914062 60.039062 C 47.441406 60.039062 60.039062 47.441406 60.039062 31.914062 C 60.039062 16.382812 47.441406 3.789062 31.914062 3.789062 Z M 31.914062 3.789062 " fill-opacity="1" fill-rule="nonzero"></path></g><path fill="#ffffff" d="M 40.472656 20.472656 C 39.996094 20.144531 39.222656 19.976562 38.160156 19.976562 L 27.09375 19.976562 C 26.222656 19.976562 25.542969 20.089844 25.054688 20.304688 C 24.566406 20.53125 24.328125 21.019531 24.328125 21.777344 C 24.328125 22.492188 24.554688 23.023438 25.019531 23.363281 C 25.484375 23.707031 26.175781 23.875 27.105469 23.875 L 35.992188 23.875 C 34.597656 25.644531 33.398438 27.421875 32.378906 29.214844 C 31.367188 31.003906 30.519531 32.75 29.847656 34.441406 C 29.167969 36.140625 28.683594 37.601562 28.386719 38.816406 C 28.09375 40.027344 27.933594 40.992188 27.933594 41.707031 C 27.933594 42.625 28.136719 43.316406 28.546875 43.792969 C 28.953125 44.257812 29.496094 44.496094 30.179688 44.496094 C 30.882812 44.496094 31.460938 44.28125 31.878906 43.839844 C 32.308594 43.394531 32.636719 42.613281 32.863281 41.492188 C 32.964844 41.003906 33.082031 40.300781 33.214844 39.382812 C 33.351562 38.464844 33.464844 37.714844 33.578125 37.136719 C 33.691406 36.558594 33.875 35.835938 34.144531 34.960938 C 34.78125 32.976562 35.472656 31.300781 36.230469 29.929688 C 36.992188 28.558594 37.726562 27.410156 38.441406 26.484375 C 39.15625 25.554688 39.792969 24.714844 40.347656 23.953125 C 40.902344 23.195312 41.183594 22.570312 41.183594 22.105469 C 41.183594 21.359375 40.949219 20.804688 40.472656 20.472656 " fill-opacity="1" fill-rule="nonzero"></path></svg>