<svg xmlns="http://www.w3.org/2000/svg" xmlns:xlink="http://www.w3.org/1999/xlink" width="85" viewBox="0 0 63.75 63.749998" height="85" preserveAspectRatio="xMidYMid meet"><defs><clipPath id="bef1181280"><path d="M 0 0 L 63.5 0 L 63.5 63.5 L 0 63.5 Z M 0 0 " clip-rule="nonzero"></path></clipPath><clipPath id="f7428d0f48"><path d="M 3.789062 3.789062 L 60.039062 3.789062 L 60.039062 60.039062 L 3.789062 60.039062 Z M 3.789062 3.789062 " clip-rule="nonzero"></path></clipPath></defs><g clip-path="url(#bef1181280)"><path fill="#ffffff" d="M 0 0 L 63.75 0 L 63.75 63.75 L 0 63.75 Z M 0 0 " fill-opacity="1" fill-rule="nonzero"></path><path fill="#ffffff" d="M 0 0 L 63.75 0 L 63.75 63.75 L 0 63.75 Z M 0 0 " fill-opacity="1" fill-rule="nonzero"></path></g><g clip-path="url(#f7428d0f48)"><path fill="#6fbbf4" d="M 31.914062 3.789062 C 16.382812 3.789062 3.789062 16.382812 3.789062 31.914062 C 3.789062 47.441406 16.382812 60.039062 31.914062 60.039062 C 47.441406 60.039062 60.039062 47.441406 60.039062 31.914062 C 60.039062 16.382812 47.441406 3.789062 31.914062 3.789062 Z M 31.914062 3.789062 " fill-opacity="1" fill-rule="nonzero"></path></g><path fill="#ffffff" d="M 40.0625 34.453125 C 39.746094 33.667969 39.28125 32.988281 38.65625 32.386719 C 38.035156 31.800781 37.25 31.324219 36.3125 30.949219 C 37.421875 30.40625 38.25 29.714844 38.804688 28.851562 C 39.359375 28 39.644531 27.027344 39.644531 25.949219 C 39.644531 25.097656 39.484375 24.292969 39.167969 23.535156 C 38.851562 22.777344 38.351562 22.09375 37.695312 21.496094 C 37.023438 20.894531 36.199219 20.417969 35.199219 20.078125 C 34.203125 19.738281 33.046875 19.566406 31.730469 19.566406 C 30.167969 19.566406 28.804688 19.863281 27.640625 20.453125 C 26.472656 21.042969 25.585938 21.824219 24.984375 22.796875 C 24.386719 23.773438 24.078125 24.816406 24.078125 25.925781 C 24.078125 28.21875 25.210938 29.894531 27.480469 30.960938 C 24.667969 32.070312 23.261719 34.113281 23.261719 37.09375 C 23.261719 38.488281 23.589844 39.746094 24.261719 40.867188 C 24.929688 41.992188 25.90625 42.875 27.21875 43.519531 C 28.523438 44.167969 30.097656 44.484375 31.933594 44.484375 C 33.703125 44.484375 35.246094 44.167969 36.550781 43.519531 C 37.851562 42.875 38.851562 41.992188 39.519531 40.855469 C 40.199219 39.722656 40.527344 38.453125 40.527344 37.058594 C 40.539062 36.09375 40.378906 35.222656 40.0625 34.453125 M 29.316406 23.707031 C 29.953125 23.058594 30.789062 22.730469 31.832031 22.730469 C 32.523438 22.730469 33.125 22.878906 33.660156 23.183594 C 34.191406 23.488281 34.597656 23.898438 34.894531 24.40625 C 35.1875 24.929688 35.335938 25.519531 35.335938 26.164062 C 35.335938 26.652344 35.257812 27.09375 35.085938 27.503906 C 34.917969 27.910156 34.691406 28.25 34.382812 28.546875 C 34.078125 28.839844 33.714844 29.066406 33.285156 29.238281 C 32.851562 29.40625 32.386719 29.488281 31.867188 29.488281 C 30.835938 29.488281 29.996094 29.167969 29.339844 28.546875 C 28.683594 27.921875 28.363281 27.140625 28.363281 26.199219 C 28.363281 25.191406 28.683594 24.351562 29.316406 23.707031 M 35.460938 39.203125 C 35.109375 39.871094 34.621094 40.378906 34 40.742188 C 33.375 41.105469 32.683594 41.289062 31.902344 41.289062 C 31.140625 41.289062 30.449219 41.105469 29.828125 40.742188 C 29.203125 40.378906 28.714844 39.871094 28.351562 39.214844 C 27.988281 38.554688 27.808594 37.796875 27.808594 36.933594 C 27.808594 35.585938 28.195312 34.53125 28.953125 33.78125 C 29.714844 33.035156 30.664062 32.648438 31.789062 32.648438 C 32.582031 32.648438 33.308594 32.820312 33.941406 33.160156 C 34.585938 33.5 35.085938 34 35.4375 34.632812 C 35.789062 35.28125 35.972656 36.027344 35.972656 36.890625 C 35.972656 37.75 35.8125 38.542969 35.460938 39.203125 " fill-opacity="1" fill-rule="nonzero"></path></svg>