<svg xmlns="http://www.w3.org/2000/svg" xmlns:xlink="http://www.w3.org/1999/xlink" width="85" viewBox="0 0 63.75 63.749998" height="85" preserveAspectRatio="xMidYMid meet"><defs><clipPath id="9e449a9688"><path d="M 0 0 L 63.5 0 L 63.5 63.5 L 0 63.5 Z M 0 0 " clip-rule="nonzero"></path></clipPath><clipPath id="3efb136b87"><path d="M 3.789062 3.789062 L 60.039062 3.789062 L 60.039062 60.039062 L 3.789062 60.039062 Z M 3.789062 3.789062 " clip-rule="nonzero"></path></clipPath></defs><g clip-path="url(#9e449a9688)"><path fill="#ffffff" d="M 0 0 L 63.75 0 L 63.75 63.75 L 0 63.75 Z M 0 0 " fill-opacity="1" fill-rule="nonzero"></path><path fill="#ffffff" d="M 0 0 L 63.75 0 L 63.75 63.75 L 0 63.75 Z M 0 0 " fill-opacity="1" fill-rule="nonzero"></path></g><g clip-path="url(#3efb136b87)"><path fill="#6fbbf4" d="M 31.914062 3.789062 C 16.382812 3.789062 3.789062 16.382812 3.789062 31.914062 C 3.789062 47.441406 16.382812 60.039062 31.914062 60.039062 C 47.441406 60.039062 60.039062 47.441406 60.039062 31.914062 C 60.039062 16.382812 47.441406 3.789062 31.914062 3.789062 Z M 31.914062 3.789062 " fill-opacity="1" fill-rule="nonzero"></path></g><path fill="#ffffff" d="M 39.65625 26.378906 C 39.246094 24.871094 38.65625 23.625 37.898438 22.640625 C 37.136719 21.652344 36.199219 20.894531 35.074219 20.371094 C 33.953125 19.851562 32.683594 19.589844 31.253906 19.589844 C 30.019531 19.589844 28.886719 19.804688 27.855469 20.226562 C 26.832031 20.644531 25.949219 21.234375 25.203125 21.980469 C 24.464844 22.730469 23.886719 23.625 23.488281 24.644531 C 23.09375 25.667969 22.890625 26.753906 22.890625 27.886719 C 22.890625 28.953125 23.070312 29.960938 23.421875 30.9375 C 23.773438 31.902344 24.285156 32.75 24.941406 33.476562 C 25.597656 34.203125 26.378906 34.769531 27.289062 35.164062 C 28.195312 35.574219 29.15625 35.765625 30.199219 35.765625 C 31.300781 35.765625 32.296875 35.550781 33.195312 35.109375 C 34.101562 34.667969 34.917969 34.019531 35.640625 33.160156 C 35.484375 36.164062 35.007812 38.25 34.214844 39.441406 C 33.816406 40.027344 33.328125 40.484375 32.773438 40.800781 C 32.207031 41.117188 31.605469 41.277344 30.984375 41.277344 C 30.269531 41.277344 29.632812 41.070312 29.078125 40.675781 C 28.511719 40.265625 28.113281 39.734375 27.867188 39.078125 C 27.660156 38.53125 27.378906 38.125 26.980469 37.851562 C 26.597656 37.582031 26.152344 37.445312 25.667969 37.445312 C 25.132812 37.445312 24.703125 37.625 24.351562 37.988281 C 24.011719 38.351562 23.839844 38.769531 23.839844 39.234375 C 23.839844 39.984375 24.113281 40.765625 24.667969 41.582031 C 25.222656 42.398438 26.027344 43.078125 27.09375 43.621094 C 28.160156 44.167969 29.40625 44.449219 30.847656 44.449219 C 32.308594 44.449219 33.613281 44.179688 34.769531 43.644531 C 35.925781 43.113281 36.910156 42.285156 37.726562 41.183594 C 38.554688 40.085938 39.179688 38.726562 39.609375 37.105469 C 40.039062 35.484375 40.257812 33.613281 40.257812 31.480469 C 40.277344 29.601562 40.0625 27.886719 39.65625 26.378906 M 34.691406 30.519531 C 34.292969 31.210938 33.78125 31.730469 33.160156 32.082031 C 32.535156 32.445312 31.878906 32.625 31.1875 32.625 C 30.066406 32.625 29.144531 32.183594 28.410156 31.3125 C 27.683594 30.4375 27.308594 29.261719 27.308594 27.785156 C 27.308594 26.300781 27.671875 25.109375 28.410156 24.203125 C 29.136719 23.296875 30.03125 22.855469 31.085938 22.855469 C 31.695312 22.855469 32.253906 22.992188 32.773438 23.25 C 33.296875 23.511719 33.726562 23.886719 34.101562 24.351562 C 34.472656 24.816406 34.757812 25.371094 34.960938 26.007812 C 35.164062 26.640625 35.269531 27.332031 35.269531 28.09375 C 35.28125 29.023438 35.074219 29.839844 34.691406 30.519531 " fill-opacity="1" fill-rule="nonzero"></path></svg>